<?xml version="1.0" standalone="no"?>
<!DOCTYPE svg PUBLIC "-//W3C//DTD SVG 20010904//EN"
 "http://www.w3.org/TR/2001/REC-SVG-20010904/DTD/svg10.dtd">
<svg version="1.0" xmlns="http://www.w3.org/2000/svg"
 width="600.000000pt" height="600.000000pt" viewBox="0 0 600.000000 600.000000"
 preserveAspectRatio="xMidYMid meet">
<metadata>
Created by potrace 1.14, written by Peter Selinger 2001-2017
</metadata>
<g transform="translate(0.000000,600.000000) scale(0.100000,-0.100000)"
fill="#000000" stroke="none">
<path d="M3024 5778 c3 -7 9 -21 12 -30 4 -10 11 -18 18 -18 6 0 22 -14 36
-31 14 -17 31 -38 39 -46 7 -7 10 -17 6 -21 -3 -4 -11 1 -16 10 -5 10 -15 15
-22 12 -23 -8 -127 -10 -127 -2 0 11 -34 10 -46 -2 -5 -5 -19 -11 -31 -13 -13
-2 -26 -6 -29 -10 -4 -4 -13 -2 -21 4 -9 8 -13 8 -13 1 0 -6 -10 -14 -21 -17
-18 -6 -21 -13 -16 -46 3 -21 1 -39 -4 -39 -5 0 -9 -6 -9 -13 0 -8 -11 -19
-25 -25 -32 -15 -32 -7 1 23 25 23 28 55 5 55 -6 0 -8 -6 -5 -13 5 -15 -23
-44 -32 -34 -10 9 -36 -21 -29 -33 3 -5 1 -10 -5 -10 -7 0 -10 -6 -8 -12 3 -7
-8 -23 -23 -36 -16 -13 -29 -19 -29 -13 0 6 3 11 8 11 4 0 13 9 20 21 12 18 9
17 -22 -6 -19 -14 -38 -26 -43 -24 -4 1 -13 -7 -18 -18 -8 -16 -13 -17 -22 -8
-9 10 -9 16 0 25 10 10 8 12 -6 6 -10 -3 -21 -6 -23 -6 -2 0 -4 -6 -4 -13 0
-8 -11 -19 -25 -25 -17 -8 -23 -16 -18 -28 5 -14 3 -15 -18 -3 -18 9 -20 13
-9 17 24 7 69 53 64 66 -5 13 34 16 52 4 6 -4 20 3 31 15 29 32 37 48 20 41
-8 -3 -17 2 -20 10 -4 9 -12 13 -20 11 -7 -3 -26 6 -43 20 -16 14 -32 25 -36
25 -16 0 -7 -18 15 -33 22 -16 21 -16 -15 -14 -20 1 -36 6 -35 11 1 5 -4 11
-11 13 -8 3 -10 -1 -5 -12 5 -15 3 -16 -15 -6 -14 7 -19 17 -15 28 5 13 2 15
-11 10 -10 -4 -25 -7 -34 -8 -13 0 -11 -3 6 -11 12 -6 22 -15 22 -20 0 -4 6
-8 13 -8 16 -1 63 -37 56 -44 -9 -9 -113 63 -121 84 -5 14 -17 20 -38 20 -16
0 -30 -4 -30 -10 0 -5 12 -10 27 -10 14 0 24 -3 20 -6 -3 -3 -24 -3 -47 1 -36
6 -39 9 -24 19 12 9 14 15 5 20 -16 10 -53 -3 -45 -16 4 -6 -1 -8 -15 -3 -12
3 -21 2 -21 -3 0 -6 18 -13 40 -17 48 -8 59 -21 25 -27 -14 -3 -25 -1 -25 3 0
5 -5 9 -11 9 -5 0 -7 -5 -3 -12 7 -11 -63 -7 -126 7 l-25 6 25 -13 c25 -12 25
-12 -12 -16 -23 -2 -38 -8 -38 -16 0 -8 -7 -20 -17 -27 -15 -13 -15 -12 -5 7
10 19 9 22 -16 27 -35 7 -54 -5 -22 -14 l25 -7 -27 -1 c-20 -1 -26 -5 -22 -16
4 -8 2 -15 -4 -15 -15 0 -23 28 -9 33 7 2 8 8 4 13 -4 4 -17 3 -27 -4 -25 -15
-33 -15 -24 -1 4 7 1 10 -6 7 -23 -7 -20 -22 8 -43 21 -15 24 -15 13 -2 -7 9
-9 17 -3 17 13 0 23 -26 16 -44 -5 -14 -53 -41 -66 -38 -5 1 -8 -3 -8 -8 0 -6
-10 -10 -22 -10 -19 0 -20 -2 -8 -10 12 -8 9 -10 -13 -10 -19 0 -30 -7 -37
-22 -5 -13 -9 -17 -9 -9 -1 9 -7 11 -18 6 -10 -4 -23 -8 -29 -8 -21 -1 -10
-28 13 -33 l24 -6 -21 -20 c-11 -10 -25 -16 -30 -13 -6 4 -8 -6 -5 -27 7 -43
-7 -67 -29 -49 -13 11 -18 10 -31 -3 -9 -9 -22 -16 -28 -16 -6 0 -1 7 11 16
18 12 20 19 11 35 -9 18 -8 19 9 10 11 -6 22 -7 26 -4 8 9 -14 33 -30 33 -8 0
-14 4 -14 10 0 5 8 7 18 4 14 -5 14 -4 2 4 -8 6 -17 9 -21 6 -4 -2 -10 0 -14
6 -3 5 -1 10 4 10 6 0 11 5 11 11 0 5 -4 8 -9 4 -5 -3 -12 -1 -16 4 -9 15 -44
9 -38 -7 3 -8 0 -13 -8 -12 -26 4 -84 -2 -66 -7 26 -7 20 -28 -8 -28 -14 0
-25 3 -25 7 0 4 -7 5 -15 2 -8 -3 -28 4 -44 15 -16 12 -33 21 -38 21 -4 0 0
-5 10 -11 22 -13 14 -29 -12 -22 -18 5 -33 -21 -40 -71 0 -5 -8 -3 -16 4 -13
11 -18 10 -28 -4 -7 -9 -21 -19 -32 -21 -11 -2 -20 -4 -20 -5 0 -1 -11 -3 -24
-4 -22 -3 -23 -2 -6 10 10 7 22 11 26 8 5 -3 9 -1 9 5 0 6 7 8 15 5 8 -4 15
-1 15 5 0 15 -2 15 -92 -15 -71 -24 -77 -28 -61 -40 15 -12 15 -13 1 -8 -11 4
-18 -2 -23 -18 -4 -13 -15 -32 -24 -42 -12 -14 -13 -20 -3 -23 6 -3 12 -9 12
-15 0 -6 -7 -8 -15 -5 -19 8 -26 -5 -30 -60 -2 -31 -9 -51 -21 -60 -10 -7 -12
-13 -6 -13 7 0 12 -5 12 -11 0 -8 -13 -9 -39 -5 -23 3 -42 2 -46 -4 -11 -18
-25 -10 -25 15 0 14 -4 25 -10 25 -5 0 -10 -16 -10 -35 0 -24 -5 -35 -15 -35
-8 0 -15 -4 -15 -8 0 -4 -18 -19 -40 -32 -22 -14 -40 -29 -40 -33 0 -13 -90
-121 -109 -131 -9 -5 -18 -12 -21 -15 -3 -3 -16 -15 -30 -26 l-24 -20 18 28
c9 16 16 33 14 38 -2 6 -14 -11 -27 -38 -13 -26 -35 -60 -48 -75 -14 -14 -25
-29 -25 -32 0 -3 -2 -15 -5 -26 -4 -16 -8 -18 -19 -9 -11 9 -16 6 -23 -12 -4
-13 -7 -28 -5 -34 2 -5 -5 -21 -16 -35 -17 -21 -21 -23 -31 -10 -9 13 -10 12
-5 -2 3 -11 0 -18 -8 -18 -14 0 -26 -29 -26 -64 0 -11 -7 -27 -15 -36 -11 -12
-12 -24 -6 -47 5 -17 5 -36 1 -44 -9 -13 -7 -37 4 -94 6 -29 6 -30 -6 -5 -11
25 -11 25 -15 3 -3 -13 -8 -23 -12 -23 -4 0 -7 -29 -7 -64 1 -37 -4 -70 -11
-77 -14 -14 -6 -42 10 -32 6 3 7 1 3 -6 -4 -6 -12 -9 -17 -6 -11 7 -13 -178
-1 -189 4 -4 12 18 18 51 l12 58 1 -75 c1 -42 5 -80 10 -85 5 -6 11 -23 13
-40 l4 -30 8 30 c18 71 23 71 31 2 5 -49 11 -67 20 -63 8 3 15 -7 19 -27 17
-85 47 -166 60 -161 8 3 16 -4 19 -16 3 -12 10 -20 15 -17 12 8 55 -93 82
-189 11 -44 32 -95 45 -115 13 -20 29 -56 36 -80 7 -24 16 -48 19 -54 4 -5 18
-41 30 -80 13 -38 42 -115 65 -170 23 -55 46 -111 50 -125 4 -14 16 -36 25
-50 10 -14 34 -56 54 -93 47 -90 144 -252 178 -301 16 -21 28 -43 28 -48 0 -5
5 -14 10 -21 28 -32 80 -123 80 -140 0 -10 4 -16 8 -13 4 2 8 -4 8 -15 0 -18
-2 -18 -12 -5 -10 14 -17 14 -70 -2 -40 -11 -59 -22 -58 -32 3 -37 5 -41 16
-38 7 3 19 -2 27 -9 11 -12 17 -12 35 1 19 12 23 12 23 0 0 -8 -7 -14 -16 -15
-9 -1 2 -7 24 -14 22 -7 52 -10 67 -8 29 6 40 -7 121 -136 44 -70 46 -104 5
-128 -24 -15 -27 -15 -42 0 -9 8 -16 23 -16 31 0 9 -3 15 -7 15 -21 -3 -33 2
-27 12 5 8 -3 10 -24 7 -17 -2 -33 0 -35 5 -3 11 -57 -2 -57 -14 0 -12 -37
-11 -45 1 -3 6 -15 5 -31 -2 -23 -11 -28 -9 -45 12 -10 14 -16 31 -14 38 3 8
0 12 -6 10 -6 -2 -10 -7 -9 -12 2 -13 -28 -28 -40 -21 -6 3 -10 -1 -10 -9 0
-10 -9 -16 -22 -17 -22 0 -22 -1 -3 -8 11 -5 24 -6 29 -4 4 3 1 -6 -8 -20 -9
-13 -15 -31 -14 -38 2 -9 -8 -15 -24 -17 -16 -2 -28 -7 -28 -11 0 -11 -71 -12
-85 -1 -6 5 -20 7 -30 5 -11 -2 -23 -4 -26 -4 -3 -1 -14 -17 -25 -37 -14 -28
-16 -38 -6 -41 6 -3 10 -9 6 -14 -7 -12 3 -12 25 0 10 6 23 6 32 0 11 -7 10
-10 -8 -15 -13 -4 -23 -11 -23 -16 0 -6 -9 -8 -20 -5 -11 3 -20 2 -20 -3 0 -4
24 -10 53 -13 28 -3 61 -8 72 -12 14 -5 13 -2 -5 9 -25 16 -25 16 15 10 47 -8
75 -21 75 -34 0 -6 6 -10 13 -11 6 0 22 -13 34 -29 19 -23 20 -29 8 -34 -8 -3
-25 -2 -38 3 -12 4 -36 6 -52 5 -22 -3 -40 5 -65 26 -27 23 -37 27 -53 19 -10
-6 -21 -8 -25 -5 -3 3 1 6 8 6 11 0 11 3 2 12 -10 10 -15 10 -20 1 -8 -12 -62
-6 -62 7 0 4 -18 3 -41 -2 -39 -11 -41 -10 -70 26 -25 29 -37 36 -66 36 -33 0
-103 33 -103 48 0 4 -14 7 -30 7 -24 0 -32 -5 -37 -22 -3 -15 -13 -23 -25 -23
-17 0 -18 -2 -8 -15 7 -9 19 -14 26 -11 8 3 13 2 13 -2 -3 -21 3 -31 24 -38
36 -13 47 -13 47 -1 0 6 18 -8 41 -31 22 -23 44 -40 49 -37 5 3 11 1 15 -4 3
-6 13 -7 21 -4 9 3 21 -3 30 -16 9 -12 20 -19 25 -15 5 3 8 2 7 -3 -1 -4 6
-20 16 -35 10 -15 15 -32 11 -38 -4 -6 4 -10 19 -10 13 0 32 -3 42 -7 12 -4
15 -3 10 5 -5 8 2 12 19 12 15 0 24 -4 20 -10 -8 -13 1 -13 26 0 10 6 19 7 19
3 -1 -17 -28 -42 -52 -48 -21 -5 -29 -2 -38 14 -20 39 -100 9 -100 -38 0 -16
-6 -21 -27 -21 -21 0 -24 -3 -13 -9 8 -6 18 -7 22 -5 5 3 6 -6 2 -20 -5 -21
-3 -26 14 -26 11 0 25 -7 32 -15 7 -8 25 -15 41 -15 22 0 27 4 24 20 -3 14 2
20 14 20 9 0 22 5 29 12 10 10 52 -14 120 -72 14 -12 35 -4 27 11 -3 5 0 6 8
4 7 -3 21 -19 31 -36 17 -28 19 -29 35 -15 10 9 25 16 34 16 9 0 19 5 23 11
10 16 -16 57 -40 63 -11 3 -26 14 -32 24 -10 15 -8 18 9 20 12 0 30 -7 40 -16
11 -9 21 -16 23 -14 2 1 9 2 15 2 8 0 8 -4 -1 -15 -17 -20 9 -47 33 -33 11 6
17 5 17 -2 0 -5 -6 -10 -12 -11 -7 0 -2 -5 12 -11 24 -10 23 -11 -25 -22 -35
-8 -45 -14 -33 -18 10 -4 20 -3 23 2 3 5 14 8 25 7 14 -1 18 -7 14 -22 -4 -15
3 -23 28 -34 18 -8 48 -24 67 -37 18 -12 40 -20 48 -17 8 3 13 0 11 -8 -2 -11
10 -14 49 -14 57 0 65 -5 81 -52 11 -33 2 -97 -11 -76 -4 7 -14 10 -21 7 -8
-3 -17 -1 -20 4 -3 5 -16 7 -30 5 -13 -3 -27 0 -30 6 -4 6 -16 11 -26 11 -10
0 -25 7 -34 15 -9 10 -17 11 -21 5 -4 -6 -10 -8 -14 -5 -16 9 -76 -27 -111
-67 -45 -51 -66 -53 -109 -11 -19 18 -40 33 -48 33 -7 0 -13 5 -13 11 0 5 -4
8 -9 5 -18 -12 -34 26 -36 86 -1 35 -7 64 -14 66 -6 2 -11 10 -11 18 0 12 -4
12 -19 2 -16 -10 -23 -9 -40 6 -11 10 -37 20 -59 21 -30 2 -45 -3 -70 -25
l-32 -28 23 -16 22 -17 -28 4 c-15 2 -30 0 -33 -5 -3 -5 -19 -6 -36 -3 -16 4
-54 7 -85 8 -40 0 -58 5 -65 17 -11 17 -63 16 -74 -1 -3 -5 0 -8 8 -7 7 2 13
-4 13 -12 0 -8 -8 -14 -17 -14 -14 1 -16 -4 -11 -30 3 -17 12 -38 19 -47 8 -9
11 -19 7 -24 -5 -4 -1 -6 7 -3 8 3 24 2 35 -2 18 -7 18 -8 -7 -15 -24 -6 -31
-15 -30 -35 0 -3 -21 -5 -48 -5 -31 0 -46 -3 -43 -11 8 -21 -26 -35 -89 -39
-34 -2 -64 -8 -66 -13 -1 -5 -25 -8 -52 -6 l-50 3 0 -199 0 -200 640 0 c369 0
640 4 640 9 0 5 7 11 14 14 10 4 13 1 9 -9 -4 -12 113 -14 898 -14 l904 0 -35
21 c-19 12 -38 27 -42 33 -4 6 -11 11 -15 11 -4 1 -18 6 -30 13 -19 11 -22 10
-17 -3 5 -11 2 -13 -10 -9 -9 3 -15 12 -14 19 2 7 -8 23 -22 35 -23 20 -25 20
-31 3 -7 -17 -8 -17 -8 0 -1 10 -8 20 -16 23 -8 4 -13 10 -10 14 3 5 0 12 -6
16 -8 4 -9 3 -5 -4 4 -7 2 -12 -4 -12 -6 0 -13 7 -16 15 -4 8 -12 15 -19 15
-6 0 -20 8 -29 19 -9 10 -29 21 -44 24 -15 3 -39 17 -54 31 -15 15 -34 26 -42
26 -22 0 -29 18 -9 23 11 3 7 5 -10 6 -16 0 -26 5 -22 11 3 6 0 10 -8 10 -8 0
-17 7 -21 15 -3 8 -14 15 -25 15 -10 0 -31 13 -44 30 -14 16 -32 30 -40 30 -8
0 -20 7 -27 15 -7 9 -19 14 -26 11 -8 -3 -11 0 -8 9 3 7 -3 16 -15 20 -11 3
-23 15 -26 26 -4 10 -14 19 -24 19 -21 0 -61 40 -61 61 0 9 -3 10 -8 3 -5 -8
-21 -1 -49 21 -23 18 -40 35 -37 38 3 3 -3 3 -13 1 -14 -4 -28 4 -46 26 -15
17 -31 29 -37 25 -6 -3 -7 0 -4 9 4 11 0 16 -14 16 -12 0 -41 14 -65 30 -25
17 -50 30 -55 30 -11 0 -25 31 -20 46 4 16 -27 54 -44 54 -10 0 -18 5 -18 10
0 6 11 8 25 4 30 -7 34 10 8 38 -15 17 -15 18 3 18 11 0 27 -9 37 -20 9 -11
26 -20 37 -20 31 0 24 17 -10 24 -17 3 -30 12 -30 20 0 8 -6 17 -12 19 -8 3
-6 6 5 6 9 1 17 -6 17 -15 0 -8 5 -12 11 -9 7 5 4 13 -7 26 -9 10 -17 28 -18
40 0 12 -8 25 -16 27 -13 5 -13 3 -1 -11 7 -10 9 -17 3 -17 -5 0 -15 7 -22 15
-9 10 -9 15 -1 15 6 0 11 5 11 10 0 6 -7 10 -15 10 -8 0 -15 5 -15 10 0 13 1
13 39 -6 18 -9 35 -13 38 -10 4 3 1 6 -5 6 -7 0 -12 5 -12 11 0 5 5 7 10 4 6
-3 13 1 16 9 3 9 -7 28 -25 48 -32 34 -24 53 10 22 24 -22 38 -10 16 14 -10
10 -17 28 -17 40 0 12 -4 22 -10 22 -5 0 -10 5 -10 11 0 7 -8 18 -17 25 -15
11 -16 13 -2 14 8 0 20 -5 27 -12 20 -20 13 2 -8 24 -21 23 -22 27 -24 109 -1
45 2 51 25 63 22 11 31 11 50 0 109 -58 192 -80 333 -89 85 -6 121 6 150 49
21 32 20 69 -2 131 -32 91 -52 101 -52 28 0 -57 -28 -119 -53 -117 -9 1 -17
-2 -17 -8 0 -11 -85 -8 -123 5 -19 6 -32 5 -42 -3 -13 -10 -19 -10 -34 4 -10
9 -25 14 -34 11 -24 -10 -117 22 -145 50 -16 17 -33 24 -45 21 -28 -7 -136 57
-137 81 0 6 -14 16 -31 22 -26 9 -28 13 -17 25 11 13 14 13 25 -1 7 -9 19 -12
33 -8 11 4 26 3 33 -2 7 -5 30 -15 52 -22 22 -7 48 -21 58 -29 16 -15 21 -14
53 3 18 10 34 22 34 27 0 4 6 8 14 8 46 0 11 54 -49 75 -34 11 -42 11 -56 -1
-24 -21 -136 -8 -150 18 -6 11 -8 22 -5 25 3 4 1 12 -5 20 -9 10 -15 10 -25 2
-11 -9 -15 -7 -20 5 -3 9 -4 22 -1 30 3 8 -4 18 -18 24 -17 8 -22 17 -18 31 4
15 1 21 -11 21 -9 0 -16 5 -16 10 0 6 5 10 10 10 6 0 10 5 10 10 0 6 -7 10
-15 10 -19 0 -19 5 0 34 14 21 13 25 -10 50 -14 15 -25 32 -25 39 0 9 2 9 8 1
9 -15 52 -28 52 -17 0 5 -10 20 -22 33 -19 20 -22 36 -24 124 -1 56 2 106 7
112 13 16 59 -6 59 -28 0 -25 38 -33 61 -12 18 16 21 16 54 -2 23 -12 38 -15
43 -9 10 15 79 45 86 38 16 -16 2 -45 -36 -80 -136 -122 -193 -195 -169 -218
9 -9 0 -78 -11 -92 -7 -9 -7 -13 -1 -13 6 0 13 -17 17 -37 3 -24 17 -49 36
-67 29 -27 34 -28 99 -23 75 5 102 16 143 58 24 23 25 29 13 39 -8 7 -15 21
-15 32 0 16 5 18 38 12 48 -9 48 -8 22 -34 -12 -12 -20 -24 -18 -28 2 -4 10
-19 17 -35 9 -17 27 -31 51 -38 32 -10 44 -8 89 12 28 13 54 32 57 41 7 23
-20 63 -80 119 l-50 47 -4 107 c-4 101 -3 108 19 131 13 14 39 32 57 40 32 13
64 38 58 45 -10 12 -15 59 -6 59 5 0 10 -6 10 -13 0 -8 9 -22 21 -33 20 -18
20 -18 13 10 -6 26 -5 27 15 17 11 -7 21 -16 21 -22 0 -5 6 -9 13 -7 6 1 22
-3 35 -10 12 -7 26 -10 31 -7 5 3 22 -15 38 -40 15 -25 31 -45 35 -45 4 0 5
-7 2 -15 -4 -8 -1 -15 5 -15 6 0 11 -6 11 -14 0 -7 9 -25 21 -40 11 -14 16
-26 10 -26 -5 0 -13 5 -16 10 -7 11 -25 4 -25 -10 0 -5 12 -15 28 -22 20 -10
28 -22 30 -46 2 -17 7 -32 12 -32 5 0 7 -6 4 -14 -3 -7 2 -20 10 -28 11 -11
13 -24 7 -44 -7 -27 -8 -28 -19 -9 -11 20 -11 20 -12 0 0 -40 11 -64 28 -58
12 5 14 1 10 -15 -4 -14 1 -31 14 -47 10 -13 20 -34 21 -45 1 -12 6 -18 14
-16 20 8 16 -22 -4 -33 -15 -8 -16 -13 -6 -28 6 -10 16 -17 23 -15 6 1 9 -2 5
-8 -3 -5 5 -25 19 -43 28 -36 32 -47 17 -47 -6 0 -18 14 -28 30 -22 39 -38 39
-18 0 20 -38 19 -50 -2 -50 -17 -1 -17 -1 0 -14 10 -8 21 -30 24 -50 6 -41 19
-47 26 -14 3 13 3 -4 1 -38 -4 -47 -2 -63 10 -73 9 -8 16 -20 16 -28 0 -13 -3
-13 -15 -3 -8 7 -15 19 -15 26 0 8 -5 14 -11 14 -8 0 -9 -13 -5 -42 6 -36 5
-40 -9 -28 -8 7 -21 10 -29 7 -10 -4 -13 -1 -10 7 9 22 -16 30 -31 10 -13 -17
-12 -30 2 -89 3 -16 2 -17 -6 -5 -9 12 -11 11 -11 -8 0 -12 7 -25 15 -28 8 -4
15 -10 15 -15 0 -5 11 -32 24 -61 29 -63 38 -98 25 -98 -5 0 -9 9 -9 19 0 23
-16 36 -25 22 -3 -6 -12 -8 -20 -4 -9 3 -15 -1 -15 -11 0 -9 3 -16 8 -16 4 0
15 -14 24 -30 9 -17 13 -30 8 -30 -5 0 -13 7 -18 16 -10 18 -32 11 -32 -11 0
-11 42 -30 60 -27 3 0 6 -14 7 -31 1 -18 -2 -25 -5 -17 -4 8 -11 16 -17 17 -5
1 -19 5 -30 8 -17 6 -16 4 4 -13 15 -12 22 -25 18 -36 -4 -11 -1 -16 11 -16
14 0 14 -2 3 -9 -12 -7 -11 -10 5 -13 10 -3 -2 -3 -28 0 -32 3 -48 1 -48 -7 0
-6 5 -11 11 -11 5 0 7 -4 4 -10 -3 -5 -2 -10 4 -10 14 0 51 -41 51 -57 0 -22
-15 -14 -27 15 -8 17 -21 28 -33 28 -24 0 -25 -9 -4 -30 16 -17 13 -19 -21
-17 -17 2 -17 0 -5 -8 8 -6 24 -11 36 -11 20 0 41 -18 59 -48 6 -11 3 -12 -14
-3 -11 7 -21 8 -21 2 0 -12 29 -23 42 -15 6 4 13 3 17 -2 12 -17 74 -34 86
-24 15 12 72 -8 80 -29 9 -22 -1 -24 -29 -6 -21 14 -29 15 -41 5 -12 -10 -20
-9 -40 4 -34 22 -53 10 -25 -16 18 -17 29 -19 72 -13 45 6 50 5 45 -9 -9 -22
9 -20 34 3 13 12 17 21 10 26 -14 8 -14 25 -1 25 16 0 32 -73 17 -82 -9 -6 -8
-11 6 -19 27 -16 20 -26 -15 -23 l-33 3 35 -12 c27 -9 35 -17 32 -32 -3 -19
-2 -19 12 -2 14 18 15 17 37 -12 17 -24 26 -28 36 -20 9 8 13 8 13 0 0 -6 7
-11 15 -11 11 0 15 -11 15 -41 0 -39 1 -41 26 -35 21 6 25 4 21 -8 -4 -9 -2
-16 3 -16 6 0 10 5 10 11 0 5 4 8 10 4 5 -3 7 -12 4 -19 -3 -8 -1 -17 5 -21 7
-3 11 3 11 15 0 16 4 20 16 16 9 -3 20 -6 25 -6 5 0 9 -11 9 -24 0 -15 7 -26
19 -29 14 -3 17 -11 14 -31 -3 -15 -1 -26 6 -26 11 0 15 12 12 43 -1 9 3 17 9
17 7 0 10 -7 6 -15 -6 -17 19 -21 29 -5 10 15 28 12 22 -4 -3 -8 1 -20 9 -27
11 -9 12 -15 3 -25 -9 -12 -6 -13 22 -7 19 3 39 13 45 22 10 13 13 13 28 -1
20 -20 20 -28 2 -28 -8 0 -16 8 -18 18 -3 14 -5 13 -10 -5 -4 -16 -2 -23 8
-23 8 0 14 -7 14 -15 0 -12 8 -14 40 -9 34 6 44 3 61 -14 14 -16 27 -20 47
-16 19 4 32 0 41 -10 18 -21 31 -20 31 2 0 14 8 17 44 16 51 -2 69 -10 62 -30
-4 -9 2 -14 15 -14 11 0 18 -4 14 -9 -10 -17 15 -23 31 -7 9 10 24 14 38 10
15 -3 29 1 41 12 16 16 19 16 29 2 6 -8 22 -14 36 -13 14 1 33 -2 42 -6 12 -7
18 -4 23 11 8 25 40 43 64 35 19 -6 51 17 51 36 0 6 4 8 9 4 5 -3 12 -1 16 5
3 5 14 14 25 20 15 8 17 7 13 -12 -4 -11 -14 -23 -25 -25 -10 -3 -18 -10 -18
-15 0 -6 -15 -25 -32 -43 -18 -18 -41 -47 -51 -64 l-19 -32 96 2 c53 1 99 6
103 12 4 6 -2 8 -16 4 -14 -3 -21 -1 -18 6 2 7 14 12 27 12 13 0 25 6 27 13 3
6 -1 12 -7 12 -7 0 -2 8 11 19 23 18 23 18 3 29 -26 14 -22 72 5 72 13 0 14 2
2 9 -12 8 -12 12 2 26 15 15 18 15 23 1 3 -9 10 -14 14 -11 5 3 11 1 15 -5 3
-5 1 -10 -4 -10 -7 0 -8 -6 -2 -17 5 -10 17 -47 26 -83 10 -36 19 -71 21 -77
3 -10 96 -13 424 -13 405 0 420 1 420 19 0 26 15 30 88 20 73 -10 90 -18 71
-30 -8 -4 134 -8 314 -9 l327 0 0 99 c0 91 -2 100 -20 106 -11 3 -20 10 -20
15 0 5 9 14 20 20 19 10 20 21 20 170 0 87 -4 161 -9 164 -4 3 -38 8 -74 10
-37 3 -97 13 -134 22 -38 9 -87 16 -110 15 -23 -1 -45 3 -48 9 -3 5 -22 8 -41
5 -18 -2 -34 0 -34 4 0 5 -19 9 -42 11 -58 2 -90 6 -108 13 -8 3 -28 8 -45 11
-16 2 -50 10 -75 16 -71 18 -102 13 -127 -18 -12 -15 -29 -35 -38 -44 -8 -10
-15 -23 -15 -29 0 -5 -4 -8 -9 -4 -6 3 -14 -2 -19 -11 -7 -13 -10 -8 -15 22
-4 21 -4 40 -2 43 3 2 5 -3 5 -12 0 -10 5 -17 10 -17 6 0 10 11 10 25 0 14 -4
25 -10 25 -5 0 -10 7 -10 16 0 8 5 12 10 9 6 -3 10 1 10 10 0 9 -4 13 -10 10
-5 -3 -10 -1 -10 4 0 6 6 11 14 11 8 0 18 5 21 10 4 7 -2 9 -19 4 -15 -4 -26
-2 -26 4 0 6 -3 19 -6 29 -6 16 -5 16 9 -2 13 -15 17 -17 17 -5 1 8 3 23 5 33
4 19 -20 24 -30 6 -4 -6 -14 -8 -23 -4 -8 3 -19 0 -24 -7 -7 -10 -8 -9 -5 2 2
8 12 14 22 13 25 -2 43 18 37 42 -3 14 9 6 37 -25 l42 -45 -16 35 c-9 19 -20
43 -26 53 -5 10 -7 22 -4 28 4 5 3 9 -2 8 -4 -1 -26 6 -48 15 -44 19 -68 56
-72 114 -2 28 0 31 16 23 16 -9 18 -5 15 49 -1 32 -5 63 -9 69 -3 6 -1 11 4
11 6 0 11 -5 11 -12 0 -6 3 -9 6 -5 3 3 1 13 -4 23 -6 12 -6 23 0 34 7 11 5
26 -6 50 l-16 35 5 -34 c6 -36 0 -36 -20 1 -6 13 -16 22 -22 21 -14 -3 -37 52
-28 66 3 6 -1 11 -9 11 -10 0 -16 9 -16 23 0 13 -9 32 -20 42 -11 10 -17 22
-14 26 8 14 40 10 54 -6 16 -20 41 -20 34 0 -4 8 -3 23 2 33 12 27 11 36 -3
59 -7 12 -13 29 -13 38 0 9 -4 13 -10 10 -10 -6 -11 -2 -15 45 -1 14 -6 34
-10 45 -7 16 -6 18 6 8 17 -17 29 -16 29 1 0 13 19 31 78 76 19 15 18 15 -19
16 -22 1 -39 -3 -39 -9 0 -7 -4 -7 -12 1 -13 13 5 42 27 42 7 0 18 7 25 15 11
13 15 13 21 3 6 -10 12 -7 25 10 9 13 22 21 29 18 23 -9 46 41 43 92 -2 37 -7
47 -20 46 -10 -1 -14 4 -11 12 3 8 -1 14 -8 14 -7 0 -10 3 -6 6 8 9 -25 44
-43 45 -8 0 -1 7 15 14 17 8 62 14 100 14 88 1 158 25 196 69 32 36 38 85 15
111 -19 21 -27 80 -15 103 7 13 3 29 -16 63 -14 25 -25 52 -25 60 0 8 -9 20
-20 28 -11 8 -17 17 -13 21 4 4 0 4 -10 0 -13 -5 -21 2 -31 28 -13 31 -56 80
-56 64 0 -4 -20 17 -46 48 -47 58 -58 67 -47 39 4 -11 3 -14 -5 -9 -7 4 -12
14 -12 22 0 15 -129 151 -131 137 0 -4 -4 1 -8 12 -9 21 -3 43 8 29 4 -5 26
-27 50 -49 l43 -40 -6 53 c-7 56 -4 59 57 54 24 -2 59 17 52 28 -3 5 7 10 22
12 23 2 29 8 31 36 3 31 32 48 32 18 0 -8 7 -16 15 -20 9 -3 12 -12 8 -21 -4
-12 -8 -13 -13 -5 -4 7 -13 9 -20 5 -9 -6 -7 -13 10 -25 23 -17 23 -18 10
-111 -7 -52 -18 -115 -25 -142 -9 -37 -9 -51 0 -64 10 -14 14 -9 23 33 6 27
17 91 24 142 10 78 15 92 30 92 22 0 24 18 3 26 -12 5 -14 42 -12 234 2 219 1
230 -19 257 -17 21 -30 28 -57 28 -19 0 -35 5 -34 10 3 16 -33 10 -105 -18
-38 -14 -68 -22 -68 -17 0 6 8 10 17 10 9 0 13 3 9 7 -10 10 -86 11 -86 1 0
-4 -6 -8 -12 -8 -15 -1 -78 -56 -78 -69 0 -5 -7 -14 -15 -21 -12 -10 -18 -10
-29 -1 -10 8 -16 9 -21 1 -7 -11 -53 -3 -69 11 -16 14 -29 10 -22 -7 6 -15 -4
-13 -32 9 -17 13 -54 17 -67 7 -5 -4 -31 -7 -57 -6 -33 2 -49 -2 -53 -12 -3
-7 -11 -12 -18 -9 -6 2 -20 0 -30 -5 -22 -11 -47 6 -47 33 0 18 -27 39 -49 39
-20 0 -12 -32 9 -37 11 -3 20 -10 20 -15 0 -5 -5 -6 -10 -3 -6 3 -17 -1 -26
-9 -19 -20 -35 -21 -28 -1 11 28 -7 37 -31 15 -18 -17 -28 -20 -41 -12 -13 7
-22 6 -32 -4 -8 -9 -23 -12 -38 -8 -15 4 -24 2 -24 -5 0 -20 -30 -24 -50 -6
-14 13 -23 14 -39 5 -12 -6 -21 -17 -21 -25 0 -8 -8 -15 -19 -15 -10 0 -31 -6
-46 -14 -23 -12 -24 -15 -9 -18 16 -3 14 -7 -13 -26 l-31 -22 -11 33 c-7 19
-9 41 -6 49 4 9 2 19 -4 22 -6 4 -13 -5 -17 -21 -5 -17 -3 -28 4 -31 15 -5
-15 -52 -34 -52 -7 0 -20 10 -28 22 -12 17 -13 24 -3 31 7 5 2 6 -13 1 -14 -3
-29 -13 -33 -21 -6 -10 -18 -12 -38 -8 -18 4 -29 3 -29 -4 0 -6 7 -11 16 -11
11 0 15 -6 11 -19 -3 -11 1 -22 8 -25 16 -6 8 -53 -9 -53 -8 0 -11 9 -8 22 5
28 -14 41 -33 25 -12 -10 -18 -10 -29 -1 -12 10 -13 9 -9 -7 4 -16 0 -19 -20
-15 -19 4 -26 0 -30 -17 -4 -17 -10 -20 -26 -15 -12 3 -21 2 -21 -3 0 -15 -55
-34 -82 -29 -21 4 -21 4 4 6 15 0 29 5 33 10 3 6 -9 7 -30 4 -20 -3 -41 -1
-49 6 -9 7 -17 8 -20 2 -3 -5 0 -12 6 -14 7 -3 -3 -7 -22 -8 -39 -3 -69 -5
-86 -8 -20 -2 -11 -31 10 -31 17 0 18 -2 6 -10 -22 -14 -61 -12 -79 4 -23 21
-73 9 -66 -14 5 -15 -2 -19 -34 -25 -23 -4 -48 -2 -60 5 -24 12 -91 3 -91 -12
0 -6 7 -7 16 -4 36 14 64 18 64 9 0 -10 -181 -45 -189 -37 -2 2 7 8 20 13 13
5 18 10 12 10 -19 1 -15 22 7 51 19 24 20 24 20 3 0 -12 -5 -23 -11 -25 -15
-5 1 -38 19 -38 13 0 13 2 -3 14 -16 11 -16 14 -3 22 8 5 23 25 33 44 10 19
31 51 46 70 35 45 79 132 78 156 0 14 -2 15 -6 4 -15 -42 -36 -80 -44 -80 -12
0 -11 37 2 62 16 30 0 36 -21 8 l-19 -25 5 65 c4 60 3 62 -8 30 l-11 -35 -7
42 c-7 46 -20 69 -20 36 0 -11 -7 -34 -15 -49 -8 -16 -15 -22 -15 -14 0 13 -1
13 -10 0 -6 -10 -7 -3 -3 24 4 26 3 37 -4 33 -13 -8 -22 36 -17 83 3 27 2 31
-5 15 -5 -11 -10 -40 -11 -65 -2 -42 -2 -43 -10 -16 -5 16 -6 49 -3 73 4 29 2
43 -6 43 -6 0 -11 -13 -11 -30 0 -20 -5 -30 -15 -30 -11 0 -15 -12 -16 -42 -1
-40 -2 -41 -9 -13 -4 17 -8 47 -9 68 -1 27 -5 37 -17 37 -12 0 -14 -3 -6 -13
6 -7 7 -19 3 -26 -11 -17 -21 33 -15 74 4 25 3 26 -5 10 -5 -11 -10 -33 -10
-50 -1 -21 -4 -26 -10 -16 -7 11 -10 11 -15 0 -3 -8 -4 -5 -1 7 3 12 1 32 -4
45 -8 23 -9 23 -19 -11 -7 -23 -11 -28 -12 -15 -2 17 -3 17 -11 -5 -8 -22 -8
-22 -3 5 3 17 8 43 11 59 4 20 2 27 -6 22 -14 -9 -14 4 -1 38 7 20 6 26 -4 26
-8 0 -17 -10 -21 -22 l-8 -23 -4 23 c-3 14 -10 22 -18 19 -7 -3 -12 1 -11 11
1 12 -6 16 -22 15 -19 -2 -21 1 -16 22 4 18 1 27 -10 31 -12 5 -13 11 -6 24
18 34 10 44 -16 19 l-26 -24 8 29 c5 21 4 27 -5 22 -16 -10 -14 27 3 69 9 21
11 37 5 40 -5 4 -9 -3 -9 -14 0 -12 -4 -21 -8 -21 -5 0 -13 -12 -19 -27 l-11
-28 -1 31 c-1 17 2 34 5 37 10 10 12 121 2 133 -13 17 36 86 50 72 7 -7 15 -1
26 20 10 19 12 33 6 37 -18 11 -10 25 14 25 31 0 56 28 36 40 -12 7 -12 10 2
15 10 4 22 4 28 0 5 -3 10 -1 10 5 0 6 21 20 48 31 26 11 61 28 79 37 18 9 35
13 39 9 4 -3 15 5 26 18 14 18 29 25 55 25 27 0 34 3 29 15 -4 12 5 15 52 15
46 0 71 7 130 37 75 38 83 47 56 57 -12 5 -15 2 -10 -11 6 -14 4 -15 -5 -6 -6
6 -8 16 -5 22 9 15 46 14 46 0 0 -12 29 -38 43 -39 4 0 2 8 -4 18 -10 15 -7
23 15 45 l26 26 1 -27 0 -27 16 22 c12 18 19 21 35 12 45 -24 116 -10 161 31
19 19 67 33 67 20 0 -4 19 -3 43 2 89 20 97 20 97 9 0 -6 5 -11 11 -11 7 0 9
10 6 26 -4 23 -2 25 26 18 21 -4 28 -3 22 6 -5 9 5 10 39 5 34 -5 46 -4 46 5
0 8 4 9 13 3 15 -12 72 -2 69 12 -2 6 8 11 22 13 13 2 32 12 42 23 9 10 25 19
35 19 12 0 16 6 12 19 -3 13 2 23 16 30 24 13 28 31 7 31 -7 0 -16 10 -19 21
-4 16 -11 20 -26 16 -20 -5 -43 12 -40 29 4 22 -2 34 -18 34 -15 0 -16 2 -3
10 13 9 13 10 0 11 -8 1 -22 1 -30 0 -9 -2 -6 4 8 14 13 9 21 22 19 28 -2 6 8
21 22 34 14 13 20 22 12 21 -8 -2 -20 8 -28 22 -9 19 -13 20 -13 8 0 -24 -4
-23 -34 7 -26 26 -23 30 29 26 19 -2 19 -1 1 10 -10 6 -36 12 -57 13 -22 0
-39 4 -39 9 0 4 -11 5 -25 1 -15 -4 -25 -2 -25 5 0 6 5 11 10 11 6 0 10 4 10
10 0 5 -7 7 -15 4 -8 -4 -26 1 -40 10 -13 9 -32 13 -42 9 -15 -5 -16 -3 -5 8
15 16 16 39 1 39 -5 0 -7 -4 -4 -10 15 -24 -16 -7 -59 33 -49 46 -52 47 -36
16 14 -24 -6 -26 -32 -2 -23 21 -31 14 -13 -11 9 -11 28 -19 47 -20 33 -1 78
-24 78 -38 0 -14 -27 -9 -40 7 -10 12 -15 13 -21 4 -5 -9 -15 -6 -36 9 -49 35
-58 49 -42 69 10 11 10 14 2 9 -8 -4 -13 -2 -13 8 0 8 -12 24 -27 35 -25 18
-26 20 -8 20 11 0 37 -3 58 -8 54 -13 36 0 -26 19 -42 13 -55 22 -70 50 -16
32 -18 33 -14 8 5 -33 -8 -27 -29 14 -10 19 -19 27 -23 20 -6 -10 -91 75 -114
114 -4 8 -15 14 -23 14 -8 0 -19 11 -25 24 -7 15 -17 22 -26 19 -18 -7 -85 57
-79 74 3 7 -1 13 -9 13 -7 0 -23 14 -35 30 -23 33 -67 63 -56 38z m-113 -155
c-9 -4 -10 -7 -2 -13 7 -3 -2 -7 -20 -7 -31 0 -31 0 -7 13 12 7 28 13 33 13 6
0 4 -3 -4 -6z m234 -23 c8 -7 15 -10 15 -6 0 3 21 -14 46 -38 48 -46 60 -86
14 -46 -14 12 -37 28 -51 36 -15 7 -30 21 -33 31 -5 13 -9 14 -15 5 -6 -10
-14 -9 -37 3 -16 8 -46 15 -66 15 -22 0 -38 5 -38 11 0 16 144 6 165 -11z
m-287 -13 c45 7 33 -13 -14 -23 -26 -5 -30 -3 -31 18 0 13 1 18 4 11 3 -7 17
-10 41 -6z m227 -61 c22 -14 40 -29 40 -34 0 -5 15 -23 33 -40 32 -30 98 -140
89 -148 -3 -3 -17 10 -32 28 -15 18 -30 31 -33 30 -3 -2 -9 3 -14 12 -5 9 -14
16 -19 16 -6 0 -29 15 -52 33 -23 19 -51 37 -61 41 -10 3 -16 9 -12 13 3 4 -4
17 -16 30 -19 20 -20 25 -8 33 23 15 42 12 85 -14z m-266 -40 c14 -17 -6 -27
-38 -19 -20 5 -20 6 -4 19 23 17 28 17 42 0z m-479 -12 c0 -8 -5 -12 -10 -9
-6 4 -8 11 -5 16 9 14 15 11 15 -7z m66 -18 c18 -18 36 -31 39 -27 3 3 3 -2
-1 -12 -9 -25 -18 -21 -58 28 -43 53 -29 60 20 11z m98 19 c-4 -8 -10 -12 -15
-9 -11 6 -2 24 11 24 5 0 7 -7 4 -15z m86 -5 c-8 -5 -17 -7 -19 -4 -3 3 1 9 9
14 8 5 17 7 19 4 3 -3 -1 -9 -9 -14z m-525 -10 c-3 -5 -10 -10 -16 -10 -5 0
-9 5 -9 10 0 6 7 10 16 10 8 0 12 -4 9 -10z m421 -45 c-8 -8 -18 -15 -22 -15
-3 0 -1 7 6 15 7 8 17 15 22 15 5 0 3 -7 -6 -15z m-406 -19 c0 -16 -18 -31
-27 -22 -8 8 5 36 17 36 5 0 10 -6 10 -14z m-130 -15 c0 -5 -7 -12 -16 -15
-14 -5 -15 -4 -4 9 14 17 20 19 20 6z m-37 -40 c9 -10 8 -11 -5 -6 -12 5 -18
2 -18 -7 0 -14 -39 -43 -47 -34 -3 3 -13 1 -22 -4 -10 -5 -23 -5 -30 -1 -8 5
2 11 28 15 48 7 56 24 9 19 l-33 -4 35 20 c38 21 63 22 83 2z m72 -1 c3 -5 1
-10 -4 -10 -6 0 -11 5 -11 10 0 6 2 10 4 10 3 0 8 -4 11 -10z m420 -76 c-25
-25 -45 -49 -45 -52 0 -4 -8 -16 -16 -27 -16 -19 -16 -19 -9 5 7 22 6 24 -9
11 -9 -8 -15 -20 -12 -28 3 -7 4 -13 2 -13 -3 0 -13 -3 -23 -7 -16 -6 -16 -5
-5 9 7 9 12 23 10 30 -3 15 45 60 102 96 53 33 54 27 5 -24z m-269 -1 c-10
-10 -19 5 -10 18 6 11 8 11 12 0 2 -7 1 -15 -2 -18z m1384 17 c0 -5 -2 -10 -4
-10 -3 0 -8 5 -11 10 -3 6 -1 10 4 10 6 0 11 -4 11 -10z m-1050 -20 c0 -5 -5
-10 -11 -10 -5 0 -7 5 -4 10 3 6 8 10 11 10 2 0 4 -4 4 -10z m-680 -36 c0 -11
-6 -14 -22 -9 -14 4 -18 3 -11 -2 8 -6 9 -13 2 -23 -8 -13 -10 -13 -18 0 -9
12 -11 12 -16 -2 -4 -9 -13 -19 -20 -22 -22 -8 -6 25 24 51 30 27 61 30 61 7z
m-240 -4 c0 -5 -2 -10 -4 -10 -3 0 -8 5 -11 10 -3 6 -1 10 4 10 6 0 11 -4 11
-10z m1050 -4 c0 -3 -4 -8 -10 -11 -5 -3 -10 -1 -10 4 0 6 5 11 10 11 6 0 10
-2 10 -4z m-1027 -31 c-3 -9 -8 -14 -10 -11 -3 3 -2 9 2 15 9 16 15 13 8 -4z
m227 6 c0 -5 -7 -11 -14 -14 -10 -4 -13 -1 -9 9 6 15 23 19 23 5z m-480 -38
c32 -1 70 -13 70 -22 -1 -23 -18 -31 -46 -21 -16 6 -29 10 -30 8 0 -2 -8 3
-17 11 -10 7 -17 9 -17 3 0 -5 -10 -8 -21 -5 -21 6 -21 6 2 24 13 10 26 15 29
11 3 -4 16 -8 30 -9z m210 7 c0 -5 -2 -10 -4 -10 -3 0 -8 5 -11 10 -3 6 -1 10
4 10 6 0 11 -4 11 -10z m-110 -34 c0 -3 -4 -8 -10 -11 -5 -3 -10 -1 -10 4 0 6
5 11 10 11 6 0 10 -2 10 -4z m62 -18 c-7 -7 -12 -8 -12 -2 0 14 12 26 19 19 2
-3 -1 -11 -7 -17z m800 -5 c-6 -31 -40 -73 -60 -73 -7 0 -1 12 13 28 15 15 31
37 36 50 12 30 17 28 11 -5z m-841 -20 c-12 -20 -14 -14 -5 12 4 9 9 14 11 11
3 -2 0 -13 -6 -23z m-141 -4 c0 -5 -4 -9 -10 -9 -5 0 -10 7 -10 16 0 8 5 12
10 9 6 -3 10 -10 10 -16z m200 -4 c-7 -9 -15 -13 -18 -10 -3 2 1 11 8 20 7 9
15 13 18 10 3 -2 -1 -11 -8 -20z m72 -37 c-7 -7 -12 -8 -12 -2 0 14 12 26 19
19 2 -3 -1 -11 -7 -17z m-322 8 c0 -2 -7 -7 -16 -10 -8 -3 -12 -2 -9 4 6 10
25 14 25 6z m-70 -25 c0 -6 -4 -13 -10 -16 -5 -3 -10 1 -10 9 0 9 5 16 10 16
6 0 10 -4 10 -9z m-90 -30 c0 -6 -4 -13 -10 -16 -5 -3 -10 1 -10 9 0 9 5 16
10 16 6 0 10 -4 10 -9z m1110 -35 c0 -3 -4 -8 -10 -11 -5 -3 -10 -1 -10 4 0 6
5 11 10 11 6 0 10 -2 10 -4z m90 -10 c0 -3 -4 -8 -10 -11 -5 -3 -10 -1 -10 4
0 6 5 11 10 11 6 0 10 -2 10 -4z m-1268 -28 c-7 -7 -12 -8 -12 -2 0 14 12 26
19 19 2 -3 -1 -11 -7 -17z m1083 -22 c-16 -24 -45 -42 -45 -29 0 9 43 52 53
52 4 1 0 -10 -8 -23z m1845 -6 c0 -5 -2 -10 -4 -10 -3 0 -8 5 -11 10 -3 6 -1
10 4 10 6 0 11 -4 11 -10z m-2981 -69 c-7 -20 -15 -28 -25 -24 -8 3 -14 0 -14
-7 0 -6 -4 -9 -9 -6 -8 5 -8 14 -2 45 1 2 8 -2 16 -9 13 -10 15 -9 15 9 0 12
6 21 14 21 12 0 13 -6 5 -29z m3051 9 c0 -5 -5 -10 -11 -10 -5 0 -7 5 -4 10 3
6 8 10 11 10 2 0 4 -4 4 -10z m-2080 -60 c-8 -5 -19 -10 -25 -10 -5 0 -3 5 5
10 8 5 20 10 25 10 6 0 3 -5 -5 -10z m-982 -72 c-2 -6 -10 -14 -16 -16 -7 -2
-10 2 -6 12 7 18 28 22 22 4z m-108 -39 c0 -5 5 -7 10 -4 6 3 10 4 10 2 0 -9
-68 -45 -74 -40 -6 6 35 53 47 53 4 0 7 -5 7 -11z m83 -30 c-8 -16 -17 -28
-19 -26 -7 6 18 57 27 57 4 0 1 -14 -8 -31z m19 -11 c-7 -7 -12 -8 -12 -2 0
14 12 26 19 19 2 -3 -1 -11 -7 -17z m2655 6 c-3 -3 -12 -4 -19 -1 -8 3 -5 6 6
6 11 1 17 -2 13 -5z m-2819 -26 c-2 -6 -10 -14 -16 -16 -7 -2 -10 2 -6 12 7
18 28 22 22 4z m67 -40 c-4 -30 -15 -62 -26 -74 -11 -11 -16 -24 -12 -27 3 -4
1 -7 -5 -7 -7 0 -12 5 -12 11 0 5 -5 7 -10 4 -16 -10 -31 41 -20 67 5 13 9 17
9 11 1 -15 27 -17 36 -3 3 6 -1 7 -9 4 -9 -3 -16 -2 -16 4 0 16 28 34 41 26 8
-4 9 -3 5 4 -8 14 1 32 16 32 6 0 7 -18 3 -52z m-190 -17 c-23 -45 -26 -38 -7
17 9 27 18 40 20 30 2 -9 -4 -30 -13 -47z m2418 -31 c3 -11 1 -20 -4 -20 -5 0
-9 9 -9 20 0 11 2 20 4 20 2 0 6 -9 9 -20z m-2463 -20 c0 -19 -5 -30 -14 -30
-16 0 -32 -37 -22 -48 4 -3 9 4 13 16 7 27 19 28 26 2 3 -13 0 -20 -9 -20 -8
0 -14 -4 -14 -10 0 -5 -8 -6 -17 -3 -12 5 -15 2 -10 -10 8 -21 -2 -49 -14 -41
-12 7 -12 54 0 54 4 0 11 20 13 45 8 68 48 106 48 45z m126 -17 c-10 -10 -19
5 -10 18 6 11 8 11 12 0 2 -7 1 -15 -2 -18z m2280 18 c-4 -5 0 -11 6 -14 25
-9 -9 -29 -56 -34 -41 -5 -46 -3 -46 14 0 10 5 24 12 31 14 14 92 17 84 3z
m-2361 -31 c3 -6 -1 -7 -9 -4 -18 7 -21 14 -7 14 6 0 13 -4 16 -10z m90 -20
c3 -5 1 -10 -4 -10 -6 0 -11 5 -11 10 0 6 2 10 4 10 3 0 8 -4 11 -10z m-299
-87 c-10 -10 -19 5 -10 18 6 11 8 11 12 0 2 -7 1 -15 -2 -18z m324 6 c0 -11
-4 -17 -10 -14 -5 3 -10 13 -10 21 0 8 5 14 10 14 6 0 10 -9 10 -21z m-315
-29 c-3 -5 -1 -10 4 -10 20 0 11 -49 -15 -77 l-25 -28 6 35 c10 62 11 65 19
78 4 6 9 12 12 12 3 0 2 -4 -1 -10z m26 -88 c-11 -21 -41 -48 -41 -38 0 4 7
18 16 31 19 29 40 34 25 7z m59 -41 c0 -5 -7 -11 -15 -15 -15 -5 -20 5 -8 17
9 10 23 9 23 -2z m-40 -21 c0 -5 -5 -10 -11 -10 -5 0 -7 5 -4 10 3 6 8 10 11
10 2 0 4 -4 4 -10z m2017 -6 c-3 -3 -12 -4 -19 -1 -8 3 -5 6 6 6 11 1 17 -2
13 -5z m-2160 -86 c-3 -7 -5 -2 -5 12 0 14 2 19 5 13 2 -7 2 -19 0 -25z m193
2 c10 0 21 -4 24 -9 6 -10 -21 -8 -46 3 -10 5 -15 13 -11 19 5 8 8 7 11 -1 2
-7 12 -12 22 -12z m-90 -80 c0 -5 -7 -10 -16 -10 -8 0 -12 5 -9 10 3 6 10 10
16 10 5 0 9 -4 9 -10z m-31 -84 c7 -8 8 -17 3 -20 -6 -3 -12 3 -15 14 -6 24
-4 25 12 6z m36 -46 c3 -5 2 -10 -4 -10 -5 0 -13 5 -16 10 -3 6 -2 10 4 10 5
0 13 -4 16 -10z m-95 -27 c-1 -5 -8 -19 -16 -33 -8 -14 -13 -17 -10 -7 3 10 6
25 6 33 0 8 5 14 10 14 6 0 10 -3 10 -7z m30 -55 c0 -5 -7 -8 -15 -8 -8 0 -15
-5 -15 -12 0 -6 -2 -9 -5 -6 -3 3 -1 18 5 34 9 23 13 25 20 14 6 -8 10 -18 10
-22z m11 -31 c-10 -9 -11 -8 -5 6 3 10 9 15 12 12 3 -3 0 -11 -7 -18z m-46
-26 c3 -5 1 -12 -5 -16 -5 -3 -10 1 -10 9 0 18 6 21 15 7z m9 -68 c-9 -21 -18
-33 -20 -27 -3 6 3 28 12 50 9 21 19 34 21 27 2 -6 -3 -28 -13 -50z m-22 30
c-6 -2 -10 -9 -6 -14 3 -5 0 -9 -5 -9 -12 0 -14 13 -4 23 3 4 11 7 17 6 6 0 5
-3 -2 -6z m48 -54 c0 -6 -4 -7 -10 -4 -5 3 -10 11 -10 16 0 6 5 7 10 4 6 -3
10 -11 10 -16z m10 -83 c0 -3 -4 -8 -10 -11 -5 -3 -10 -1 -10 4 0 6 5 11 10
11 6 0 10 -2 10 -4z m40 -71 c0 -14 -4 -25 -9 -25 -5 0 -8 11 -7 25 1 33 16
33 16 0z m74 -30 c-4 -8 -8 -15 -10 -15 -2 0 -4 7 -4 15 0 8 4 15 10 15 5 0 7
-7 4 -15z m2153 -17 c-3 -8 -6 -5 -6 6 -1 11 2 17 5 13 3 -3 4 -12 1 -19z
m2433 -28 c0 -11 -8 -23 -17 -27 -10 -3 -35 -20 -56 -36 -21 -16 -40 -27 -43
-24 -10 9 28 58 65 83 43 29 51 30 51 4z m79 -52 c17 -83 18 -97 26 -203 4
-55 5 -98 2 -95 -5 5 -11 43 -23 155 -3 33 -10 65 -16 72 -5 6 -6 28 -2 49 4
23 3 35 -3 31 -6 -4 -8 3 -5 18 2 14 6 25 7 25 2 0 8 -24 14 -52z m-2322 -45
c-3 -10 -5 -4 -5 12 0 17 2 24 5 18 2 -7 2 -21 0 -30z m80 -35 c-3 -8 -6 -5
-6 6 -1 11 2 17 5 13 3 -3 4 -12 1 -19z m1721 -3 c-3 -3 -30 -10 -59 -15 -30
-4 -62 -11 -71 -15 -10 -4 -18 -3 -18 3 0 5 21 14 48 20 53 11 108 15 100 7z
m502 -19 c0 -2 -8 -10 -17 -17 -16 -13 -17 -12 -4 4 13 16 21 21 21 13z m-40
-36 c0 -5 -5 -10 -11 -10 -8 0 -7 -5 1 -15 9 -11 10 -19 3 -26 -8 -8 -13 -5
-17 9 -5 14 -14 18 -34 16 l-27 -4 28 12 c15 7 27 15 27 20 0 4 7 8 15 8 8 0
15 -4 15 -10z m-2149 -36 c-11 -15 -21 -23 -21 -18 0 14 31 56 37 50 3 -3 -4
-17 -16 -32z m784 7 c-3 -6 -11 -11 -17 -11 -6 0 -6 6 2 15 14 17 26 13 15 -4z
m672 -63 c-3 -7 -5 -2 -5 12 0 14 2 19 5 13 2 -7 2 -19 0 -25z m630 0 c-3 -8
-6 -5 -6 6 -1 11 2 17 5 13 3 -3 4 -12 1 -19z m-690 -10 c-3 -8 -6 -5 -6 6 -1
11 2 17 5 13 3 -3 4 -12 1 -19z m-820 -4 c-3 -3 -12 -4 -19 -1 -8 3 -5 6 6 6
11 1 17 -2 13 -5z m123 -4 c-8 -5 -26 -9 -40 -9 -23 1 -23 2 5 9 43 11 52 11
35 0z m650 5 c0 -2 -10 -10 -22 -16 -21 -11 -22 -11 -9 4 13 16 31 23 31 12z
m747 -20 c-1 -5 -13 -10 -27 -10 -18 0 -24 -5 -22 -17 2 -10 -2 -18 -8 -18
-13 0 -13 26 2 49 8 13 18 17 34 12 13 -3 23 -10 21 -16z m-681 0 c-10 -8 -24
-11 -29 -8 -6 4 -2 10 9 14 31 12 40 9 20 -6z m-1013 -2 c-7 -2 -21 -2 -30 0
-10 3 -4 5 12 5 17 0 24 -2 18 -5z m180 0 c-7 -2 -19 -2 -25 0 -7 3 -2 5 12 5
14 0 19 -2 13 -5z m-85 -8 c-2 -2 -41 -9 -87 -14 -64 -8 -86 -8 -95 2 -10 9 8
12 87 14 54 0 97 0 95 -2z m852 -17 c0 -16 -3 -19 -11 -11 -6 6 -8 16 -5 22
11 17 16 13 16 -11z m671 -13 c1 -8 3 -19 4 -25 1 -5 3 -13 4 -16 3 -14 31 20
31 37 0 13 7 19 23 19 19 -1 20 -2 7 -13 -25 -20 -22 -37 8 -38 24 -1 23 -2
-8 -9 -34 -6 -35 -7 -11 -17 l25 -10 -30 -7 c-16 -4 -37 -9 -46 -12 -12 -4
-18 0 -18 10 0 9 8 17 18 17 15 1 15 2 1 6 -16 4 -29 31 -29 61 0 17 20 15 21
-3z m147 -17 c-3 -7 -12 -14 -22 -14 -13 -2 -13 -1 -1 3 8 2 13 9 10 14 -4 5
-1 9 5 9 7 0 10 -6 8 -12z m-254 -64 c9 -22 8 -24 -9 -18 -8 4 -15 12 -15 20
0 19 16 18 24 -2z m-141 -41 c-7 -2 -19 -2 -25 0 -7 3 -2 5 12 5 14 0 19 -2
13 -5z m-116 -120 c5 3 15 2 23 -3 12 -7 10 -9 -5 -8 -11 0 -28 -3 -37 -6 -13
-6 -15 -3 -11 14 4 15 8 18 13 10 4 -7 12 -10 17 -7z m64 -26 c-13 -13 -26 -3
-16 12 3 6 11 8 17 5 6 -4 6 -10 -1 -17z m-1366 -137 c3 -6 0 -10 -9 -10 -13
0 -13 -4 0 -30 9 -16 20 -30 25 -30 6 0 8 4 5 8 -5 8 47 72 59 72 3 0 12 -6
19 -12 11 -11 11 -15 -3 -25 -15 -11 -14 -12 2 -13 9 0 17 -3 17 -8 0 -11 58
-34 70 -27 5 3 10 1 10 -4 0 -6 8 -11 18 -11 12 0 10 -4 -8 -13 -31 -15 -41
-67 -14 -67 9 0 33 -12 51 -26 29 -22 39 -25 59 -16 18 9 25 8 31 -2 4 -7 16
-15 26 -19 10 -4 17 -17 17 -31 0 -26 34 -66 56 -66 7 0 10 -8 7 -20 -5 -19
-2 -20 56 -16 49 4 61 2 61 -10 0 -18 53 -40 58 -25 4 12 32 15 32 3 0 -4 10
-13 21 -21 18 -11 23 -11 31 1 6 9 8 6 6 -10 -3 -22 2 -24 52 -29 98 -11 190
-4 227 15 23 12 121 17 110 5 -4 -3 -2 -12 4 -19 8 -10 7 -21 -4 -43 -8 -16
-12 -41 -10 -55 3 -14 -2 -45 -12 -68 -21 -53 -58 -131 -66 -138 -6 -5 -22
-40 -23 -51 -1 -3 -16 -24 -34 -45 -53 -61 -99 -144 -110 -199 -13 -60 -22
-206 -12 -200 3 2 4 -9 2 -26 -2 -16 2 -36 9 -45 16 -19 22 -143 8 -160 -6 -7
-7 -28 -4 -47 5 -25 2 -38 -10 -51 -21 -20 -41 -16 -37 8 3 14 -1 16 -20 11
-13 -4 -28 -13 -34 -21 -15 -19 -24 -7 -18 26 4 15 1 31 -5 34 -7 5 -12 -3
-12 -21 -1 -22 -3 -23 -6 -7 -2 12 -12 24 -22 27 -17 4 -17 2 -4 -25 8 -16 12
-36 9 -44 -10 -25 -36 8 -37 48 -1 31 -2 31 -9 8 -6 -22 -8 -23 -15 -7 -4 10
-14 16 -21 13 -8 -3 -14 1 -14 9 0 21 -22 19 -48 -5 -27 -26 -32 -25 -32 3 0
29 -29 73 -30 45 0 -12 -5 -15 -16 -11 -9 3 -20 0 -24 -8 -7 -10 -11 -8 -18
10 -13 36 -23 10 -12 -30 6 -19 10 -43 9 -54 -1 -11 -5 -2 -10 20 -5 21 -18
48 -28 60 -21 23 -36 59 -21 50 13 -8 13 1 0 26 -8 13 -8 31 -1 57 9 33 9 35
-4 18 -8 -11 -15 -26 -15 -34 0 -11 -3 -10 -16 2 -21 21 -21 21 -16 -19 3 -23
9 -35 19 -35 9 0 13 -6 10 -14 -3 -7 0 -22 7 -32 15 -22 27 -85 14 -78 -4 3
-8 0 -8 -6 0 -6 -4 -8 -10 -5 -5 3 -10 1 -10 -4 0 -6 -5 -11 -11 -11 -7 0 -9
12 -5 35 7 36 2 42 -24 25 -10 -6 -11 -10 -2 -10 6 0 12 -6 12 -14 0 -8 -10
-13 -24 -12 -21 1 -27 9 -36 46 -7 25 -15 54 -19 65 -4 11 -7 37 -6 57 2 33 0
35 -11 20 -16 -20 -18 -68 -4 -77 6 -3 10 -17 10 -30 0 -13 5 -27 10 -30 6 -3
10 -15 10 -26 0 -10 -4 -19 -10 -19 -5 0 -10 11 -10 25 0 16 -6 25 -15 25 -8
0 -15 -7 -15 -15 0 -8 -6 -15 -14 -15 -10 0 -16 -13 -19 -38 -3 -35 -4 -34 -5
9 -1 28 -9 56 -21 71 -13 16 -17 29 -10 39 7 11 9 9 9 -8 0 -16 4 -21 15 -17
8 4 22 1 29 -5 18 -15 30 1 21 30 -5 15 -12 18 -27 13 -17 -5 -20 -3 -15 11 4
9 7 21 7 26 0 6 5 7 11 3 7 -4 9 1 7 14 -2 11 5 29 15 40 10 11 17 29 14 39
-4 14 -5 14 -6 -4 0 -13 -7 -23 -15 -23 -8 0 -17 -6 -20 -12 -3 -9 -9 -7 -18
7 -13 20 -14 24 -17 60 -2 18 -4 17 -13 -5 -10 -23 -11 -23 -16 -5 -2 11 -9
25 -14 32 -5 7 -12 39 -15 72 -3 33 -9 58 -13 56 -4 -3 -11 7 -15 22 -3 14
-20 46 -37 69 -18 25 -27 47 -23 55 5 8 4 10 -3 5 -7 -4 -12 -1 -12 8 0 8 -13
23 -29 32 -16 10 -34 28 -40 41 -6 12 -15 23 -20 23 -5 0 -11 9 -14 20 -6 24
-44 27 -49 4 -2 -13 -8 -11 -31 10 -16 15 -34 23 -40 19 -8 -5 -8 -2 0 9 11
12 10 21 -1 44 -8 16 -18 43 -22 59 -6 26 -5 28 8 18 8 -7 18 -10 21 -6 12 11
8 20 -10 27 -10 3 -24 9 -30 12 -10 4 -13 -8 -13 -45 0 -28 -4 -51 -10 -51 -5
0 -10 6 -11 13 0 9 -2 9 -6 -1 -8 -21 -32 5 -39 44 -9 47 -28 44 -21 -3 5 -32
4 -35 -5 -15 -6 12 -19 22 -30 22 -20 0 -23 17 -8 40 8 12 11 11 16 -8 l7 -23
13 27 c11 20 11 30 3 40 -6 7 -8 18 -4 25 4 6 2 14 -4 18 -8 6 -7 18 5 46 13
33 14 45 3 77 -7 22 -19 38 -28 39 -13 1 -13 2 2 6 21 6 22 19 2 27 -8 3 -15
0 -15 -6 0 -7 -7 -3 -15 8 -8 10 -14 28 -14 39 0 19 0 19 14 1 13 -17 14 -15
17 20 2 22 -1 49 -6 62 -7 17 -6 26 3 31 11 7 11 10 0 17 -8 5 -18 9 -24 9 -5
0 -11 18 -13 40 -1 22 -7 44 -11 48 -5 5 -6 17 -4 28 5 18 7 19 23 4 17 -15
18 -15 16 1 -1 15 6 17 47 15 36 -2 49 1 53 13 5 13 16 15 45 12 28 -4 39 -1
39 8 0 8 10 14 23 14 12 1 31 3 42 4 14 2 19 -2 17 -14 -4 -24 19 -23 25 1 4
16 11 18 43 14 21 -3 45 -1 54 4 23 13 64 14 71 3z m158 3 c-7 -2 -19 -2 -25
0 -7 3 -2 5 12 5 14 0 19 -2 13 -5z m69 -135 c-6 -6 -16 -7 -22 -3 -9 6 -9 9
1 16 17 10 34 0 21 -13z m-2058 -19 c-4 -8 0 -9 15 -4 11 3 27 3 35 -2 10 -5
-3 -9 -34 -9 -40 -1 -48 2 -39 13 14 16 33 18 23 2z m194 -42 c6 3 12 0 12 -6
0 -6 -18 -11 -40 -11 l-40 0 16 25 c9 14 13 25 10 25 -4 0 -4 5 0 12 5 8 11 1
18 -19 6 -17 16 -28 24 -26z m90 46 c-10 -2 -18 -9 -18 -15 0 -6 -3 -9 -6 -5
-10 10 6 27 24 26 15 -1 15 -2 0 -6z m-168 -23 c0 -11 -6 -20 -14 -20 -9 0
-12 7 -9 20 3 11 9 20 14 20 5 0 9 -9 9 -20z m270 -10 c0 -11 -3 -20 -8 -20
-4 0 -13 9 -20 20 -11 18 -10 20 8 20 13 0 20 -7 20 -20z m2460 16 c0 -3 -4
-8 -10 -11 -5 -3 -10 -1 -10 4 0 6 5 11 10 11 6 0 10 -2 10 -4z m-2900 -33 c0
-5 -9 -19 -20 -33 -16 -20 -19 -21 -14 -5 11 31 34 58 34 38z m764 -50 c-7 32
11 37 20 5 12 -46 7 -66 -14 -61 -11 3 -20 13 -20 22 0 9 -3 27 -6 41 -4 22
-3 21 10 -5 l15 -30 -5 28z m-808 -39 c-4 -9 -9 -15 -11 -12 -3 3 -3 13 1 22
4 9 9 15 11 12 3 -3 3 -13 -1 -22z m659 -38 c1 -50 -12 -70 -39 -60 -10 4 -16
1 -16 -7 0 -7 -7 -4 -15 8 -13 18 -13 26 -3 42 6 11 21 22 31 25 12 3 17 10
14 19 -6 17 2 29 17 24 5 -2 10 -25 11 -51z m776 21 c-8 -8 -11 -7 -11 4 0 20
13 34 18 19 3 -7 -1 -17 -7 -23z m-21 -30 c0 -5 -4 -5 -10 -2 -5 3 -10 14 -10
23 0 15 2 15 10 2 5 -8 10 -19 10 -23z m60 -92 c9 0 15 -9 15 -25 0 -14 -5
-24 -12 -23 -6 2 -15 -6 -18 -17 -7 -23 -25 -27 -25 -5 0 8 5 15 10 15 20 0 9
21 -15 30 -25 10 -35 30 -13 30 6 0 8 3 5 7 -4 3 -2 12 5 20 10 12 13 10 22
-9 6 -13 18 -23 26 -23z m-330 -21 c0 -8 -4 -12 -10 -9 -5 3 -10 10 -10 16 0
5 5 9 10 9 6 0 10 -7 10 -16z m361 -73 c-14 -22 -15 -22 -22 -5 -11 29 -10 34
6 34 9 0 15 10 16 23 1 21 1 21 8 -3 5 -16 2 -33 -8 -49z m-1441 16 c0 -5 -4
-5 -10 -2 -5 3 -10 14 -10 23 0 15 2 15 10 2 5 -8 10 -19 10 -23z m1120 -39
c0 -18 -4 -27 -11 -22 -6 3 -9 15 -6 25 3 10 -1 26 -9 36 -21 28 -16 39 6 13
11 -13 20 -36 20 -52z m-1170 1 c0 -6 -4 -7 -10 -4 -5 3 -10 11 -10 16 0 6 5
7 10 4 6 -3 10 -11 10 -16z m1238 -60 c-3 -20 -5 -19 -9 9 -3 20 -2 29 4 23 5
-5 7 -19 5 -32z m165 24 c-6 -16 -5 -16 10 -4 14 11 17 11 17 -1 0 -15 -19
-38 -32 -38 -10 0 -11 44 -1 53 11 11 13 8 6 -10z m-194 -76 c1 -17 -3 -26
-10 -22 -5 4 -8 12 -6 18 2 7 0 20 -5 30 -5 9 -6 23 -2 29 9 15 22 -16 23 -55z
m291 24 c-1 -14 -2 -14 -14 2 -11 15 -15 15 -19 3 -3 -8 -15 -20 -27 -26 -19
-10 -20 -9 -14 17 9 36 13 41 24 23 8 -12 10 -12 16 3 5 14 9 15 20 6 8 -6 14
-19 14 -28z m-1029 9 c14 0 11 -26 -6 -40 -8 -7 -15 -21 -15 -31 0 -23 -32
-26 -49 -5 -19 23 20 91 46 81 8 -3 19 -5 24 -5z m815 -37 c-6 -6 -36 9 -36
18 0 5 9 4 20 -3 10 -7 18 -14 16 -15z m-86 -65 c0 -5 -4 -8 -10 -8 -5 0 -10
10 -10 23 0 18 2 19 10 7 5 -8 10 -18 10 -22z m-1050 -44 c24 -56 25 -60 5
-44 -8 7 -15 21 -15 31 0 10 -4 21 -10 24 -10 6 -14 35 -5 35 2 0 13 -21 25
-46z m1140 36 c0 -5 -2 -10 -4 -10 -3 0 -8 5 -11 10 -3 6 -1 10 4 10 6 0 11
-4 11 -10z m331 -47 c-8 -15 -10 -15 -11 -2 0 17 10 32 18 25 2 -3 -1 -13 -7
-23z m-1351 -153 c5 0 10 -4 10 -10 0 -5 -5 -10 -10 -10 -13 0 -59 51 -59 65
0 6 11 -2 24 -17 13 -16 29 -28 35 -28z m1500 -17 c0 -13 -3 -13 -15 -3 -8 7
-12 16 -9 21 8 13 24 1 24 -18z m-510 2 c0 -8 -4 -15 -10 -15 -5 0 -10 7 -10
15 0 8 5 15 10 15 6 0 10 -7 10 -15z m585 -23 c-7 -8 -35 7 -35 18 0 6 7 6 20
-2 10 -7 17 -14 15 -16z m1583 -37 c3 -51 -12 -95 -34 -95 -7 0 -18 -9 -23
-19 -22 -40 -101 -44 -101 -6 0 8 -4 15 -10 15 -5 0 -10 -8 -10 -19 0 -26 -26
-44 -54 -37 -41 10 -42 60 -3 110 29 35 57 27 58 -18 1 -29 2 -28 10 10 12 51
47 85 90 89 18 1 35 8 37 14 2 7 11 11 21 9 12 -2 17 -16 19 -53z m-1831 13
c-3 -7 -5 -2 -5 12 0 14 2 19 5 13 2 -7 2 -19 0 -25z m61 -14 c-4 -3 -12 5
-18 18 -12 22 -12 22 6 6 10 -10 15 -20 12 -24z m132 14 c25 -38 31 -58 15
-52 -15 6 -45 48 -45 64 0 17 14 11 30 -12z m90 -44 c0 -4 -9 1 -20 11 -11 10
-20 25 -20 33 0 9 7 6 20 -11 11 -14 20 -29 20 -33z m-563 -33 c-4 -19 -1 -33
8 -41 17 -14 21 -45 5 -35 -6 4 -8 11 -5 16 4 5 2 9 -4 9 -5 0 -12 -6 -15 -12
-3 -7 -4 11 -3 39 1 29 6 53 11 53 5 0 6 -13 3 -29z m580 -28 c-3 -10 -5 -2
-5 17 0 19 2 27 5 18 2 -10 2 -26 0 -35z m1249 1 c5 -18 1 -34 -13 -52 -25
-33 -57 -36 -61 -4 -2 12 -9 22 -15 22 -7 0 -4 5 6 11 9 5 17 15 17 22 0 7 -4
6 -10 -3 -7 -11 -10 -11 -10 -2 0 13 33 30 62 31 11 1 20 -9 24 -25z m-1741
-46 c-7 -29 -9 -30 -16 -13 -11 29 -11 37 2 29 8 -4 9 1 4 17 -6 19 -5 21 5
12 8 -7 9 -22 5 -45z m405 24 c0 -15 -2 -15 -10 -2 -13 20 -13 33 0 25 6 -3
10 -14 10 -23z m-346 -47 c7 -28 6 -29 -7 -10 -8 11 -18 31 -22 45 -7 21 -6
22 7 9 8 -8 18 -28 22 -44z m46 25 c12 -17 23 -42 24 -56 2 -15 15 -41 29 -60
26 -31 38 -82 17 -69 -5 3 -10 15 -10 26 0 13 -7 19 -21 19 -16 0 -19 4 -14
20 4 11 2 20 -4 20 -6 0 -11 10 -11 23 0 12 -5 29 -10 37 -8 11 -9 8 -4 -11 3
-15 1 -29 -4 -33 -5 -3 -12 11 -16 32 -3 21 -1 38 4 40 6 2 10 8 10 14 0 6 -7
8 -14 5 -10 -4 -13 -1 -9 9 7 19 8 18 33 -16z m1347 -35 c-7 -13 -14 -20 -15
-14 -5 14 6 39 17 39 5 0 4 -11 -2 -25z m76 -13 c19 -10 32 -23 30 -29 -2 -6
6 -13 18 -16 11 -3 18 -10 14 -16 -4 -7 11 -11 45 -11 44 0 53 -3 57 -21 4
-12 11 -18 20 -15 16 6 35 -34 23 -48 -12 -12 -30 2 -23 19 10 28 -29 13 -40
-15 -4 -8 -4 0 -1 17 7 39 -1 54 -22 46 -10 -4 -12 -8 -5 -12 6 -4 7 -18 2
-36 -6 -25 -12 -30 -34 -27 -15 1 -27 -2 -27 -8 0 -5 19 -10 43 -10 30 0 38
-3 27 -10 -11 -7 -12 -12 -3 -21 6 -6 9 -17 6 -25 -3 -8 5 -16 22 -20 34 -8
41 0 25 31 -15 28 -12 34 16 36 64 6 63 8 61 -100 -1 -63 3 -103 10 -113 13
-15 7 -58 -8 -58 -4 0 -14 10 -20 22 -11 21 -13 21 -18 5 -5 -15 -10 -11 -21
17 -14 36 -40 49 -40 21 0 -19 -30 -19 -74 -1 -24 10 -38 25 -47 50 -7 20 -19
36 -27 36 -10 0 -12 7 -8 25 9 37 -12 30 -23 -7 -7 -26 -9 -28 -10 -10 -1 12
-5 22 -11 22 -5 0 -10 5 -10 10 0 6 8 10 18 8 11 -2 18 5 20 21 4 23 3 23 -13
8 -23 -23 -35 -21 -35 6 0 13 -9 34 -20 47 -23 26 -26 50 -7 50 8 0 8 3 -2 9
-8 5 -12 18 -8 30 3 14 1 19 -6 14 -6 -4 -8 0 -4 10 3 9 1 17 -4 19 -6 2 -7
12 -3 22 7 19 8 19 14 1 6 -17 9 -15 30 13 28 37 30 38 73 14z m-1013 -42 c0
-8 7 -28 15 -44 20 -37 19 -38 -10 -24 -30 14 -45 54 -31 84 11 23 25 14 26
-16z m874 15 c-4 -8 -8 -15 -10 -15 -2 0 -4 7 -4 15 0 8 4 15 10 15 5 0 7 -7
4 -15z m-2941 -60 c9 -8 17 -11 19 -6 2 5 9 3 16 -5 11 -12 9 -16 -10 -23 -22
-8 -74 6 -63 17 3 3 0 11 -6 19 -16 19 25 18 44 -2z m3582 -5 c3 -5 -1 -10
-10 -10 -9 0 -13 5 -10 10 3 6 8 10 10 10 2 0 7 -4 10 -10z m-1806 -48 c1 -7
-3 -10 -9 -7 -5 3 -10 18 -9 33 0 24 1 25 9 7 5 -11 9 -26 9 -33z m191 32 c0
-8 -4 -12 -10 -9 -5 3 -10 10 -10 16 0 5 5 9 10 9 6 0 10 -7 10 -16z m-170
-14 c0 -11 -2 -20 -4 -20 -2 0 -6 9 -9 20 -3 11 -1 20 4 20 5 0 9 -9 9 -20z
m-1856 -29 c13 -6 26 -6 28 -1 2 4 22 5 46 1 23 -5 45 -4 48 0 8 14 23 10 41
-11 10 -11 33 -23 53 -26 60 -11 71 -29 68 -103 -2 -56 2 -73 23 -109 14 -23
29 -39 32 -35 4 3 7 1 7 -6 0 -24 40 -70 103 -118 34 -26 91 -69 127 -96 37
-29 55 -47 43 -44 -13 3 -23 1 -23 -4 0 -5 -5 -9 -11 -9 -11 0 -74 44 -102 72
-10 10 -22 18 -28 18 -5 0 -27 17 -47 38 -20 20 -49 43 -65 51 -15 8 -27 20
-27 28 0 7 -8 21 -17 31 -10 9 -27 29 -38 43 -23 29 -65 48 -65 29 0 -7 -7
-10 -15 -6 -9 3 -15 0 -15 -9 0 -20 -29 -19 -36 0 -4 8 -10 13 -14 10 -4 -3
-13 2 -20 9 -9 12 -7 17 9 26 13 6 21 21 21 36 0 14 4 33 9 43 10 18 -3 51
-15 39 -4 -4 -14 -3 -23 2 -12 6 -17 4 -19 -8 -6 -58 -5 -57 -75 -58 -37 0
-67 3 -67 6 0 4 -10 5 -22 3 -16 -2 -34 6 -55 27 -38 35 -43 55 -12 47 12 -3
22 0 25 8 3 7 14 11 24 8 15 -4 18 0 16 22 -3 25 -2 26 30 20 22 -4 34 -2 34
5 0 6 -4 9 -8 6 -5 -3 -9 1 -9 9 0 18 7 18 41 6z m2246 -35 c0 -26 -6 -18 -14
19 -5 22 -4 26 4 15 5 -8 10 -24 10 -34z m1160 34 c0 -5 -4 -10 -10 -10 -5 0
-10 5 -10 10 0 6 5 10 10 10 6 0 10 -4 10 -10z m-1493 -40 c7 -10 9 -21 4 -24
-4 -3 -13 6 -19 19 -14 30 -2 33 15 5z m1526 5 c-3 -9 -8 -14 -10 -11 -3 3 -2
9 2 15 9 16 15 13 8 -4z m-1256 -17 c-3 -8 -6 -5 -6 6 -1 11 2 17 5 13 3 -3 4
-12 1 -19z m1373 -9 c0 -6 -24 -19 -36 -19 -2 0 -4 6 -4 14 0 9 9 14 20 13 11
-1 20 -4 20 -8z m180 -10 c0 -11 -4 -17 -10 -14 -5 3 -10 13 -10 21 0 8 5 14
10 14 6 0 10 -9 10 -21z m-2255 1 c3 -5 1 -10 -4 -10 -6 0 -11 5 -11 10 0 6 2
10 4 10 3 0 8 -4 11 -10z m480 -19 c8 -17 11 -32 6 -35 -7 -5 -31 42 -31 60 0
12 12 0 25 -25z m200 19 c3 -5 1 -10 -4 -10 -6 0 -11 5 -11 10 0 6 2 10 4 10
3 0 8 -4 11 -10z m890 -49 c3 -5 1 -12 -5 -16 -5 -3 -10 1 -10 9 0 18 6 21 15
7z m-1600 -11 c3 -5 1 -10 -4 -10 -6 0 -11 5 -11 10 0 6 2 10 4 10 3 0 8 -4
11 -10z m2142 -12 c-3 -8 -6 -5 -6 6 -1 11 2 17 5 13 3 -3 4 -12 1 -19z
m-1364 -27 c8 -31 -9 -47 -22 -22 -12 21 -8 41 8 41 5 0 11 -9 14 -19z m865 0
c3 -8 -1 -12 -9 -9 -7 2 -15 10 -17 17 -3 8 1 12 9 9 7 -2 15 -10 17 -17z
m328 -18 c-11 -11 -17 4 -9 23 7 18 8 18 11 1 2 -10 1 -21 -2 -24z m270 13 c0
-14 -5 -21 -9 -17 -4 4 -5 15 -1 24 9 24 12 21 10 -7z m-1868 -21 c-3 -3 -9 2
-12 12 -6 14 -5 15 5 6 7 -7 10 -15 7 -18z m1937 16 c3 -5 1 -12 -5 -16 -5 -3
-10 1 -10 9 0 18 6 21 15 7z m-35 -33 c0 -5 -4 -8 -10 -8 -5 0 -10 10 -10 23
0 18 2 19 10 7 5 -8 10 -18 10 -22z m-3100 12 c0 -5 -2 -10 -4 -10 -3 0 -8 5
-11 10 -3 6 -1 10 4 10 6 0 11 -4 11 -10z m1670 -15 c0 -8 -4 -15 -10 -15 -5
0 -10 7 -10 15 0 8 5 15 10 15 6 0 10 -7 10 -15z m276 6 c-4 -5 -2 -21 4 -35
6 -17 6 -26 0 -26 -13 0 -32 48 -24 61 3 5 10 9 15 9 6 0 8 -4 5 -9z m1001
-23 c-3 -7 -5 -2 -5 12 0 14 2 19 5 13 2 -7 2 -19 0 -25z m-1070 -10 c-3 -7
-5 -2 -5 12 0 14 2 19 5 13 2 -7 2 -19 0 -25z m-153 -12 c-1 -9 3 -16 9 -16 6
0 7 -3 4 -6 -9 -10 -37 16 -37 33 0 8 6 13 13 10 6 -2 11 -12 11 -21z m46 14
c0 -5 -4 -10 -10 -10 -5 0 -10 5 -10 10 0 6 5 10 10 10 6 0 10 -4 10 -10z
m317 -22 c-3 -7 -5 -2 -5 12 0 14 2 19 5 13 2 -7 2 -19 0 -25z m978 -33 c1
-11 -2 -27 -7 -35 -7 -11 -8 -10 -5 8 3 12 1 22 -3 22 -4 0 -8 17 -8 38 0 35
1 35 11 12 5 -14 11 -34 12 -45z m-1055 35 c0 -11 -4 -20 -9 -20 -5 0 -7 9 -4
20 3 11 7 20 9 20 2 0 4 -9 4 -20z m-357 -15 c-3 -9 -8 -14 -10 -11 -3 3 -2 9
2 15 9 16 15 13 8 -4z m613 -28 c2 -34 0 -37 -6 -17 -11 33 -12 60 -2 60 4 0
8 -19 8 -43z m-2996 18 c0 -8 9 -23 20 -32 26 -23 25 -31 -4 -44 -21 -10 -29
-7 -60 17 -46 37 -49 69 -6 59 19 -4 30 -3 30 4 0 6 5 11 10 11 6 0 10 -7 10
-15z m3040 -26 l-10 -34 21 25 20 25 -15 -31 c-8 -17 -13 -42 -10 -55 5 -21 4
-21 -10 5 -19 33 -21 77 -4 94 17 17 19 10 8 -29z m-150 21 c0 -5 -4 -10 -10
-10 -5 0 -10 5 -10 10 0 6 5 10 10 10 6 0 10 -4 10 -10z m-1290 -10 c12 -8 11
-10 -7 -10 -13 0 -23 5 -23 10 0 13 11 13 30 0z m1037 -12 c-3 -8 -6 -5 -6 6
-1 11 2 17 5 13 3 -3 4 -12 1 -19z m1123 2 c0 -5 -2 -10 -4 -10 -3 0 -8 5 -11
10 -3 6 -1 10 4 10 6 0 11 -4 11 -10z m-1310 -14 c0 -2 -7 -6 -15 -10 -8 -3
-15 -1 -15 4 0 6 7 10 15 10 8 0 15 -2 15 -4z m1410 -36 c0 -5 -4 -10 -10 -10
-5 0 -10 5 -10 10 0 6 5 10 10 10 6 0 10 -4 10 -10z m-543 -22 c-3 -8 -6 -5
-6 6 -1 11 2 17 5 13 3 -3 4 -12 1 -19z m-2977 2 c0 -5 -5 -10 -11 -10 -5 0
-7 5 -4 10 3 6 8 10 11 10 2 0 4 -4 4 -10z m1281 -7 c13 -15 12 -15 -8 -4 -24
12 -29 21 -14 21 5 0 15 -7 22 -17z m2204 -21 c5 -12 15 -20 22 -18 6 3 14 -1
17 -9 3 -9 0 -12 -10 -8 -8 3 -21 0 -28 -6 -10 -8 -16 -9 -21 -1 -3 5 -1 10 4
10 17 0 13 14 -10 39 -20 21 -20 23 -3 19 11 -2 23 -13 29 -26z m-40 -12 c3
-5 1 -10 -4 -10 -6 0 -11 5 -11 10 0 6 2 10 4 10 3 0 8 -4 11 -10z m151 -17
c-7 -7 -26 7 -26 19 0 6 6 6 15 -2 9 -7 13 -15 11 -17z m-3706 -2 c5 -11 10
-32 10 -48 0 -27 -2 -28 -49 -28 -71 0 -79 14 -36 58 40 42 59 46 75 18z
m3524 -16 c-4 -8 -8 -15 -10 -15 -2 0 -4 7 -4 15 0 8 4 15 10 15 5 0 7 -7 4
-15z m-3487 -47 c-3 -7 -5 -2 -5 12 0 14 2 19 5 13 2 -7 2 -19 0 -25z m3558
22 c7 -12 -2 -12 -30 0 -19 8 -19 9 2 9 12 1 25 -3 28 -9z m-2245 -30 c0 -13
-11 -13 -30 0 -12 8 -11 10 8 10 12 0 22 -4 22 -10z m2140 -51 c0 -6 -4 -7
-10 -4 -5 3 -10 11 -10 16 0 6 5 7 10 4 6 -3 10 -11 10 -16z m72 -14 c4 -20 3
-23 -8 -14 -16 13 -19 39 -5 39 5 0 11 -11 13 -25z m-2237 -23 c-8 -8 -25 10
-19 20 4 6 9 5 15 -3 4 -7 6 -15 4 -17z m197 -14 c-6 -6 -15 -8 -19 -4 -4 4
-1 11 7 16 19 12 27 3 12 -12z m2108 -14 c0 -8 -4 -12 -10 -9 -5 3 -10 10 -10
16 0 5 5 9 10 9 6 0 10 -7 10 -16z m-2953 -34 c18 -17 39 -30 47 -30 9 0 16
-8 17 -17 0 -13 2 -14 6 -4 4 9 10 3 19 -18 11 -26 18 -31 34 -26 14 5 20 2
20 -10 0 -12 6 -15 20 -10 16 5 20 2 18 -16 -2 -17 3 -24 22 -29 23 -5 23 -7
6 -13 -11 -4 -22 -4 -25 1 -3 4 -22 16 -42 25 -20 9 -39 23 -42 30 -3 8 -21
22 -41 31 -20 9 -36 22 -36 27 0 16 -27 39 -47 40 -11 0 -13 3 -5 6 10 4 9 9
-4 24 -27 30 -2 22 33 -11z m713 20 c0 -5 -9 -10 -21 -10 -11 0 -17 5 -14 10
3 6 13 10 21 10 8 0 14 -4 14 -10z m317 -22 c-3 -7 -5 -2 -5 12 0 14 2 19 5
13 2 -7 2 -19 0 -25z m-107 -17 c0 -11 8 -22 18 -24 11 -3 7 -5 -10 -6 -30 -1
-43 12 -34 34 8 22 26 18 26 -4z m1937 -43 c-3 -7 -5 -2 -5 12 0 14 2 19 5 13
2 -7 2 -19 0 -25z m-1957 2 c6 -11 20 -20 30 -20 13 0 20 -7 20 -20 0 -13 -5
-18 -15 -14 -18 7 -20 -7 -3 -24 7 -7 8 -12 4 -12 -17 0 -57 52 -63 81 -6 34
11 39 27 9z m75 -49 c5 -21 4 -31 -3 -27 -5 3 -12 22 -14 41 -5 43 7 33 17
-14z m1882 -3 c-3 -7 -5 -2 -5 12 0 14 2 19 5 13 2 -7 2 -19 0 -25z m-2917 -8
c0 -5 -4 -10 -10 -10 -5 0 -10 5 -10 10 0 6 5 10 10 10 6 0 10 -4 10 -10z
m1070 -62 c0 -5 -7 -3 -15 6 -8 8 -15 18 -15 22 0 3 7 1 15 -6 8 -7 15 -17 15
-22z m-1414 -30 c-9 -13 -16 -44 -17 -73 0 -44 -2 -47 -10 -25 -6 14 -8 38 -5
54 7 33 35 81 43 73 3 -3 -2 -16 -11 -29z m431 14 c-10 -10 -17 -26 -17 -35 0
-22 -17 -30 -24 -11 -8 21 -8 39 1 31 3 -4 12 2 20 13 8 11 19 20 25 20 6 0 4
-8 -5 -18z m218 8 c4 -6 14 -8 24 -5 24 7 106 -47 124 -84 9 -17 11 -31 6 -31
-5 0 -9 4 -9 10 0 5 -7 7 -15 4 -8 -4 -15 -1 -15 5 0 6 -16 27 -35 47 -25 25
-40 34 -54 29 -16 -5 -51 16 -51 31 0 8 19 4 25 -6z m-777 -31 c-3 -8 -7 -3
-11 10 -4 17 -3 21 5 13 5 -5 8 -16 6 -23z m742 -24 c10 -12 10 -15 -1 -15
-26 0 -59 12 -59 21 0 15 47 10 60 -6z m-930 -66 c0 -47 -19 -87 -34 -72 -3 4
-13 -2 -21 -13 -13 -17 -14 -17 -15 -1 0 12 -8 17 -26 17 -17 0 -28 6 -31 20
-3 11 -13 20 -22 21 -13 0 -14 2 -1 6 8 3 18 11 22 17 5 7 8 6 8 -3 0 -12 3
-11 13 2 13 19 75 56 95 56 8 1 12 -16 12 -50z m880 37 c0 -24 -47 -50 -68
-37 -9 5 -6 14 8 29 23 25 60 30 60 8z m880 4 c0 -5 -5 -10 -11 -10 -5 0 -7 5
-4 10 3 6 8 10 11 10 2 0 4 -4 4 -10z m-1405 -49 c-7 -31 17 -66 40 -58 28 11
37 -8 23 -51 -7 -23 -15 -42 -18 -42 -9 0 -58 84 -65 112 -4 14 -2 36 5 47 15
30 23 26 15 -8z m150 14 c17 -4 58 -16 92 -27 l62 -21 -24 -19 c-22 -17 -27
-18 -54 -3 -46 23 -77 19 -100 -14 -12 -16 -21 -35 -20 -43 0 -10 2 -10 6 0 7
18 21 15 28 -7 6 -20 39 -37 63 -33 6 2 12 -1 12 -5 -1 -13 -48 -63 -61 -63
-7 0 -9 -10 -6 -26 l5 -26 -26 26 c-22 21 -26 33 -23 72 2 33 -1 44 -9 39 -6
-4 -10 -16 -7 -26 3 -11 1 -19 -4 -19 -5 0 -9 20 -9 45 0 25 3 45 8 45 4 0 12
17 19 37 9 30 8 41 -5 61 -15 23 -15 24 3 19 11 -3 34 -9 50 -12z m712 -22
c22 -22 22 -22 2 -28 -19 -6 -55 12 -44 23 3 3 0 10 -5 17 -18 21 25 10 47
-12z m-185 -63 c-10 -17 -9 -27 8 -60 24 -48 24 -50 3 -50 -28 1 -65 35 -68
63 -2 14 -6 31 -10 36 -3 6 0 8 8 5 10 -4 15 1 14 13 -1 11 4 18 16 17 9 -1
17 3 17 9 0 7 4 7 12 -1 10 -10 10 -17 0 -32z m236 16 c0 -22 -3 -23 -24 -14
-30 14 -31 25 -1 31 12 2 23 5 23 6 1 0 2 -10 2 -23z m-68 -45 c0 -4 8 -16 18
-27 10 -11 27 -32 37 -47 15 -24 16 -30 4 -41 -11 -9 -24 -10 -58 -1 -26 7
-40 14 -33 19 7 4 8 15 3 29 -4 12 -11 41 -15 65 l-6 43 25 -17 c14 -9 25 -19
25 -23z m130 20 c0 -15 -16 -22 -34 -15 -25 9 -19 24 9 24 14 0 25 -4 25 -9z
m74 -43 c-7 -11 -34 -10 -34 2 0 6 -9 10 -21 10 -11 0 -18 4 -15 9 4 5 20 5
41 -2 19 -5 32 -14 29 -19z m636 7 c-7 -9 -15 -13 -17 -11 -7 7 7 26 19 26 6
0 6 -6 -2 -15z m-922 -35 c-2 -6 -8 -6 -18 0 -13 9 -13 11 0 20 15 10 25 0 18
-20z m3337 20 c3 -5 -1 -10 -9 -10 -9 0 -16 5 -16 10 0 6 4 10 9 10 6 0 13 -4
16 -10z m55 0 c0 -5 -7 -10 -16 -10 -8 0 -12 5 -9 10 3 6 10 10 16 10 5 0 9
-4 9 -10z m-3073 -19 c7 -10 9 -21 7 -24 -8 -7 -42 26 -37 36 7 12 18 8 30
-12z m827 -23 c-9 -30 -10 -32 -29 -25 -22 9 -18 27 6 27 11 0 17 5 14 10 -3
6 -1 10 5 10 7 0 9 -8 4 -22z m-1604 -12 c0 -8 -6 -19 -14 -25 -18 -15 -31 15
-15 35 13 16 29 10 29 -10z m830 10 c0 -7 10 -17 23 -21 14 -4 17 -8 9 -12
-16 -6 -64 25 -57 37 9 15 25 12 25 -4z m-765 -70 c-10 -14 -22 -23 -28 -19
-6 3 -7 1 -3 -5 6 -10 -21 -32 -39 -32 -12 0 30 49 43 50 7 0 17 12 23 28 6
15 13 22 16 15 2 -6 -3 -23 -12 -37z m699 29 c-4 -8 -10 -15 -15 -15 -4 0 -6
7 -3 15 4 8 10 15 15 15 4 0 6 -7 3 -15z m-91 -10 c4 -8 2 -17 -3 -20 -6 -4
-10 3 -10 14 0 25 6 27 13 6z m39 -2 c2 -10 1 -31 -3 -48 l-7 -30 -1 36 c0 19
-6 40 -13 47 -9 9 -8 12 4 12 9 0 18 -8 20 -17z m1148 -3 c26 -16 3 -22 -27
-6 -23 13 -24 15 -8 15 11 1 27 -3 35 -9z m150 -6 c0 -8 -5 -12 -10 -9 -6 4
-8 11 -5 16 9 14 15 11 15 -7z m-1810 -25 c0 -5 -4 -9 -10 -9 -5 0 -10 7 -10
16 0 8 5 12 10 9 6 -3 10 -10 10 -16z m-57 -3 c3 -8 0 -17 -7 -19 -10 -4 -12
1 -9 14 6 23 9 24 16 5z m-75 -61 c-3 -3 -9 2 -12 12 -6 14 -5 15 5 6 7 -7 10
-15 7 -18z"/>
<path d="M2955 4470 c-4 -6 5 -10 19 -10 14 0 26 5 26 10 0 6 -9 10 -19 10
-11 0 -23 -4 -26 -10z"/>
<path d="M3380 2609 c0 -5 5 -7 10 -4 6 3 10 8 10 11 0 2 -4 4 -10 4 -5 0 -10
-5 -10 -11z"/>
<path d="M2990 2580 c0 -5 5 -10 10 -10 6 0 10 5 10 10 0 6 -4 10 -10 10 -5 0
-10 -4 -10 -10z"/>
<path d="M3320 2519 c0 -5 5 -7 10 -4 6 3 10 8 10 11 0 2 -4 4 -10 4 -5 0 -10
-5 -10 -11z"/>
<path d="M3422 2507 c-8 -9 -5 -19 8 -37 19 -24 20 -24 20 -3 0 12 -6 24 -12
26 -8 3 -6 6 5 6 9 1 17 6 17 11 0 14 -26 12 -38 -3z"/>
<path d="M3460 2465 c0 -8 5 -15 10 -15 6 0 10 7 10 15 0 8 -4 15 -10 15 -5 0
-10 -7 -10 -15z"/>
<path d="M3647 2373 c-4 -3 -7 -16 -6 -27 0 -19 1 -19 10 3 10 24 8 36 -4 24z"/>
<path d="M3480 2314 c0 -8 5 -12 10 -9 6 3 10 10 10 16 0 5 -4 9 -10 9 -5 0
-10 -7 -10 -16z"/>
<path d="M3925 2230 c-3 -5 -1 -10 4 -10 6 0 11 5 11 10 0 6 -2 10 -4 10 -3 0
-8 -4 -11 -10z"/>
<path d="M3630 2215 c-14 -16 -10 -47 7 -52 7 -3 11 9 10 31 -1 41 -1 41 -17
21z"/>
<path d="M3860 2219 c0 -5 5 -7 10 -4 6 3 10 8 10 11 0 2 -4 4 -10 4 -5 0 -10
-5 -10 -11z"/>
<path d="M4383 2213 c9 -2 23 -2 30 0 6 3 -1 5 -18 5 -16 0 -22 -2 -12 -5z"/>
<path d="M3380 2159 c0 -5 5 -7 10 -4 6 3 10 8 10 11 0 2 -4 4 -10 4 -5 0 -10
-5 -10 -11z"/>
<path d="M2949 2125 c-1 -11 -1 -28 -1 -38 2 -21 53 -96 65 -97 14 0 7 27 -13
45 -11 10 -20 24 -20 30 0 7 -7 28 -15 46 -11 26 -15 29 -16 14z"/>
<path d="M3622 2098 c6 -18 28 -21 28 -4 0 9 -7 16 -16 16 -9 0 -14 -5 -12
-12z"/>
<path d="M3081 1942 c-1 -17 31 -72 41 -72 8 0 -11 40 -23 50 -3 3 -9 12 -12
20 -4 11 -6 11 -6 2z"/>
<path d="M3156 1919 c15 -17 16 -22 4 -29 -8 -5 -11 -12 -7 -16 4 -4 16 1 27
11 22 20 14 39 -21 48 -20 5 -20 5 -3 -14z"/>
<path d="M3250 1890 c0 -5 5 -10 10 -10 6 0 10 5 10 10 0 6 -4 10 -10 10 -5 0
-10 -4 -10 -10z"/>
<path d="M3220 1828 c0 -9 5 -20 11 -23 17 -11 20 0 4 21 -13 17 -14 17 -15 2z"/>
<path d="M4020 1826 c0 -9 5 -16 10 -16 6 0 10 4 10 9 0 6 -4 13 -10 16 -5 3
-10 -1 -10 -9z"/>
<path d="M3970 1795 c0 -15 4 -24 10 -20 6 3 10 12 10 20 0 8 -4 17 -10 20 -6
4 -10 -5 -10 -20z"/>
<path d="M3330 1800 c0 -12 28 -21 35 -11 2 5 -4 11 -15 14 -11 3 -20 2 -20
-3z"/>
<path d="M3650 1749 c0 -5 5 -7 10 -4 6 3 10 8 10 11 0 2 -4 4 -10 4 -5 0 -10
-5 -10 -11z"/>
<path d="M3870 1652 c0 -26 26 -40 42 -24 8 8 6 13 -8 18 -10 4 -22 12 -26 18
-4 6 -8 1 -8 -12z"/>
<path d="M3775 1611 c-3 -5 -1 -12 5 -16 5 -3 10 1 10 9 0 18 -6 21 -15 7z"/>
<path d="M3492 1500 c0 -19 2 -27 5 -17 2 9 2 25 0 35 -3 9 -5 1 -5 -18z"/>
<path d="M3537 1511 c3 -12 10 -21 15 -21 13 0 6 32 -9 37 -7 3 -9 -3 -6 -16z"/>
<path d="M3420 1435 c0 -8 5 -15 10 -15 6 0 10 7 10 15 0 8 -4 15 -10 15 -5 0
-10 -7 -10 -15z"/>
<path d="M3563 1365 c-3 -9 -3 -18 -1 -21 3 -3 8 4 11 16 6 23 -1 27 -10 5z"/>
<path d="M3720 1214 c0 -14 3 -14 15 -4 8 7 15 14 15 16 0 2 -7 4 -15 4 -8 0
-15 -7 -15 -16z"/>
<path d="M4320 1459 c0 -5 5 -7 10 -4 6 3 10 8 10 11 0 2 -4 4 -10 4 -5 0 -10
-5 -10 -11z"/>
<path d="M4320 1367 c-8 -10 -20 -23 -26 -30 -8 -9 -6 -22 9 -51 12 -22 23
-34 25 -27 2 7 -2 24 -9 38 -12 22 -11 27 5 38 10 8 16 22 14 31 -3 18 -4 18
-18 1z"/>
<path d="M4430 1110 c0 -5 5 -10 11 -10 5 0 7 5 4 10 -3 6 -8 10 -11 10 -2 0
-4 -4 -4 -10z"/>
<path d="M1247 1289 c7 -7 15 -10 18 -7 3 3 -2 9 -12 12 -14 6 -15 5 -6 -5z"/>
<path d="M1230 1256 c0 -2 11 -6 25 -8 13 -3 22 -1 19 3 -5 9 -44 13 -44 5z"/>
<path d="M2685 5752 c1 -22 26 -56 43 -59 18 -4 15 15 -9 48 -23 33 -36 37
-34 11z"/>
<path d="M2950 5721 c0 -25 6 -27 13 -6 4 8 2 17 -3 20 -6 4 -10 -3 -10 -14z"/>
<path d="M3150 5695 c7 -8 17 -15 22 -15 6 0 5 7 -2 15 -7 8 -17 15 -22 15 -6
0 -5 -7 2 -15z"/>
<path d="M3180 5656 c0 -9 5 -16 10 -16 6 0 10 4 10 9 0 6 -4 13 -10 16 -5 3
-10 -1 -10 -9z"/>
<path d="M2760 5599 c0 -5 5 -7 10 -4 6 3 10 8 10 11 0 2 -4 4 -10 4 -5 0 -10
-5 -10 -11z"/>
<path d="M2600 5580 c0 -5 5 -10 11 -10 5 0 7 5 4 10 -3 6 -8 10 -11 10 -2 0
-4 -4 -4 -10z"/>
<path d="M1485 5341 c-3 -5 0 -21 6 -35 10 -20 15 -23 26 -15 7 6 13 19 12 28
0 12 -2 11 -8 -4 -8 -19 -8 -19 -19 1 -6 12 -8 24 -5 28 3 3 4 6 0 6 -3 0 -8
-4 -12 -9z"/>
<path d="M1640 5290 c0 -5 5 -10 10 -10 6 0 10 5 10 10 0 6 -4 10 -10 10 -5 0
-10 -4 -10 -10z"/>
<path d="M1280 5270 c-8 -5 -10 -10 -5 -10 6 0 17 5 25 10 8 5 11 10 5 10 -5
0 -17 -5 -25 -10z"/>
<path d="M1243 5245 c-8 -23 2 -29 34 -19 l28 8 -28 4 c-15 2 -25 8 -22 13 4
5 4 9 0 9 -3 0 -8 -7 -12 -15z"/>
<path d="M1180 5213 c-13 -15 -12 -16 5 -9 11 5 25 9 32 9 7 0 10 4 7 9 -8 13
-28 9 -44 -9z"/>
<path d="M876 4931 c-4 -7 -5 -15 -2 -18 9 -9 19 4 14 18 -4 11 -6 11 -12 0z"/>
<path d="M935 4925 c-3 -8 -7 -22 -10 -31 -3 -8 -1 -13 4 -10 5 3 11 17 13 31
6 27 0 34 -7 10z"/>
<path d="M615 4660 c-3 -5 -1 -10 4 -10 6 0 11 5 11 10 0 6 -2 10 -4 10 -3 0
-8 -4 -11 -10z"/>
<path d="M3700 4380 c0 -12 8 -12 35 0 18 8 17 9 -7 9 -16 1 -28 -3 -28 -9z"/>
<path d="M3926 4361 c-3 -5 1 -12 10 -15 20 -8 29 -1 19 13 -8 13 -22 14 -29
2z"/>
<path d="M3125 4350 c3 -5 8 -10 11 -10 2 0 4 5 4 10 0 6 -5 10 -11 10 -5 0
-7 -4 -4 -10z"/>
<path d="M3155 4340 c-3 -5 1 -10 9 -10 9 0 16 5 16 10 0 6 -4 10 -9 10 -6 0
-13 -4 -16 -10z"/>
<path d="M3800 4080 c0 -5 5 -10 10 -10 6 0 10 5 10 10 0 6 -4 10 -10 10 -5 0
-10 -4 -10 -10z"/>
<path d="M2486 3975 c4 -8 8 -15 10 -15 2 0 4 7 4 15 0 8 -4 15 -10 15 -5 0
-7 -7 -4 -15z"/>
<path d="M3675 3980 c-3 -6 1 -13 10 -16 19 -8 30 0 20 15 -8 14 -22 14 -30 1z"/>
<path d="M3490 3955 c0 -8 5 -15 10 -15 6 0 10 7 10 15 0 8 -4 15 -10 15 -5 0
-10 -7 -10 -15z"/>
<path d="M3825 3940 c-3 -5 -1 -10 4 -10 6 0 11 5 11 10 0 6 -2 10 -4 10 -3 0
-8 -4 -11 -10z"/>
<path d="M4100 3880 c0 -5 5 -10 10 -10 6 0 10 5 10 10 0 6 -4 10 -10 10 -5 0
-10 -4 -10 -10z"/>
<path d="M3870 3855 c-11 -13 -10 -14 4 -9 9 3 16 10 16 15 0 13 -6 11 -20 -6z"/>
<path d="M4240 3861 c0 -6 5 -13 10 -16 6 -3 10 1 10 9 0 9 -4 16 -10 16 -5 0
-10 -4 -10 -9z"/>
<path d="M4276 3814 c-9 -22 -8 -24 8 -18 20 8 29 34 12 34 -8 0 -17 -7 -20
-16z"/>
<path d="M2560 3785 c-7 -9 -8 -15 -2 -15 5 0 12 7 16 15 3 8 4 15 2 15 -2 0
-9 -7 -16 -15z"/>
<path d="M4015 3789 c-10 -15 3 -25 16 -12 7 7 7 13 1 17 -6 3 -14 1 -17 -5z"/>
<path d="M3380 3760 c0 -5 5 -10 10 -10 6 0 10 5 10 10 0 6 -4 10 -10 10 -5 0
-10 -4 -10 -10z"/>
<path d="M4005 3720 c-4 -6 -15 -8 -24 -5 -26 8 -46 -18 -27 -34 12 -10 20 -9
40 4 14 10 26 24 26 31 0 17 -6 18 -15 4z"/>
<path d="M4100 3670 c0 -5 5 -10 10 -10 6 0 10 5 10 10 0 6 -4 10 -10 10 -5 0
-10 -4 -10 -10z"/>
<path d="M4060 3574 c0 -9 5 -14 12 -12 18 6 21 28 4 28 -9 0 -16 -7 -16 -16z"/>
<path d="M3710 3540 c0 -5 7 -10 16 -10 8 0 12 5 9 10 -3 6 -10 10 -16 10 -5
0 -9 -4 -9 -10z"/>
<path d="M4351 3494 c-7 -8 -10 -18 -7 -21 7 -7 36 16 36 28 0 13 -13 10 -29
-7z"/>
<path d="M3444 3469 c-3 -6 -1 -16 5 -22 8 -8 11 -5 11 11 0 24 -5 28 -16 11z"/>
<path d="M4020 3390 c0 -19 3 -21 12 -12 9 9 9 15 0 24 -9 9 -12 7 -12 -12z"/>
<path d="M3237 3355 c-7 -16 8 -29 23 -20 10 6 2 35 -10 35 -4 0 -10 -7 -13
-15z"/>
<path d="M3297 3156 c-7 -18 1 -26 25 -26 22 0 24 26 2 34 -21 8 -21 8 -27 -8z"/>
<path d="M3220 3090 c0 -11 4 -20 8 -20 4 0 8 9 8 20 0 11 -4 20 -8 20 -4 0
-8 -9 -8 -20z"/>
<path d="M3095 3070 c4 -6 11 -8 16 -5 14 9 11 15 -7 15 -8 0 -12 -5 -9 -10z"/>
<path d="M5040 2850 c-12 -7 -11 -13 10 -34 28 -31 40 -33 40 -6 0 14 -7 20
-21 20 -15 0 -19 5 -15 15 6 17 6 18 -14 5z"/>
<path d="M5150 2810 c-14 -57 -27 -65 -32 -17 -3 31 -3 32 -16 9 -11 -20 -9
-26 19 -62 18 -22 36 -40 41 -40 4 0 8 26 8 58 0 31 3 67 6 80 4 12 2 22 -4
22 -5 0 -15 -22 -22 -50z"/>
<path d="M30 2040 c0 -5 -7 -10 -15 -10 -9 0 -15 -9 -15 -24 0 -19 4 -23 20
-19 12 3 20 0 20 -7 0 -7 7 -10 16 -6 8 3 13 2 9 -3 -10 -17 25 -40 85 -57 33
-9 60 -21 60 -26 0 -4 12 -14 28 -21 44 -19 55 -34 31 -40 -16 -4 -19 -11 -14
-28 6 -17 4 -21 -8 -16 -16 6 -27 -11 -27 -44 0 -10 -4 -19 -9 -19 -5 0 -4
-11 2 -25 7 -14 16 -25 20 -25 5 0 6 -4 3 -9 -3 -5 1 -11 9 -15 8 -3 19 3 24
12 6 10 11 12 11 5 0 -16 42 -17 58 -1 9 9 16 7 32 -7 12 -11 20 -13 20 -6 0
7 11 11 28 9 25 -3 27 -1 24 31 -1 19 -7 40 -13 47 -13 16 5 25 91 41 14 2 29
8 34 13 12 12 37 1 63 -27 31 -32 29 -33 36 28 2 14 7 30 11 37 4 7 2 12 -4
12 -6 0 -8 5 -5 10 4 6 11 8 16 5 10 -7 11 6 3 57 -6 34 -8 36 -33 28 -47 -15
-101 -19 -101 -8 0 6 -9 8 -22 3 -84 -25 -102 -26 -115 -9 -7 10 -13 14 -13
10 0 -5 -12 3 -26 18 -26 25 -44 30 -93 26 -13 -1 -38 5 -55 13 -101 48 -186
70 -186 47z m275 -180 c3 -5 -1 -10 -10 -10 -9 0 -13 5 -10 10 3 6 8 10 10 10
2 0 7 -4 10 -10z m70 -28 c-23 -5 -18 -22 7 -22 25 0 16 -13 -13 -17 -12 -2
-18 1 -14 7 3 5 1 10 -4 10 -17 0 -13 28 6 39 12 6 20 6 25 -2 4 -7 1 -13 -7
-15z"/>
<path d="M690 1917 c0 -17 47 -43 72 -39 10 2 18 -2 18 -8 0 -7 7 -10 15 -6 8
3 14 2 14 -2 -4 -25 2 -34 15 -23 11 9 16 9 22 0 4 -8 3 -9 -4 -5 -7 4 -12 5
-12 1 0 -12 45 -23 57 -13 8 6 13 3 18 -11 3 -12 14 -21 23 -21 16 1 16 1 0
13 -15 12 -15 16 -1 45 8 17 20 29 26 25 6 -3 7 -1 3 6 -6 9 -11 9 -21 1 -10
-8 -15 -6 -19 8 -7 22 -47 30 -143 28 -35 -1 -63 2 -63 6 0 5 -4 8 -10 8 -5 0
-10 -6 -10 -13z m65 -17 c3 -5 1 -10 -4 -10 -6 0 -11 5 -11 10 0 6 2 10 4 10
3 0 8 -4 11 -10z"/>
<path d="M2595 1791 c-3 -5 -1 -12 5 -16 5 -3 10 1 10 9 0 18 -6 21 -15 7z"/>
<path d="M46 1722 c-4 -7 -16 -12 -27 -12 -10 0 -19 -4 -19 -10 0 -5 5 -10 11
-10 5 0 7 -5 4 -11 -4 -6 0 -9 10 -7 10 2 20 -3 22 -10 3 -7 1 -12 -4 -11 -41
7 -43 2 -43 -105 0 -58 4 -107 9 -110 5 -3 8 2 7 12 0 11 5 16 14 13 8 -2 40
-5 70 -5 30 -1 61 -6 69 -11 11 -6 13 -4 9 6 -4 11 2 15 27 16 20 1 36 -5 39
-13 3 -7 14 -11 25 -9 13 2 21 -3 24 -17 5 -16 12 -19 31 -16 26 5 30 0 27
-35 -1 -9 5 -20 13 -23 9 -3 13 -10 10 -15 -7 -12 3 -11 26 1 14 7 23 6 34 -6
9 -8 16 -11 16 -5 0 6 13 11 28 11 15 0 33 5 40 12 9 9 16 8 29 -4 23 -20 46
-13 34 11 -5 9 -6 23 -1 30 10 18 40 7 40 -14 0 -11 4 -13 13 -8 6 4 28 8 47
9 68 2 70 3 70 29 0 27 -63 95 -89 95 -11 0 -12 3 -4 8 13 8 2 34 -13 33 -24
-1 -55 13 -64 28 -12 24 -67 16 -75 -10 -4 -10 -12 -20 -18 -21 -36 -4 -43 -3
-56 6 -16 12 -44 14 -51 4 -14 -19 -81 6 -121 45 -24 23 -40 33 -36 23 6 -15
3 -17 -13 -13 -17 4 -20 2 -14 -15 6 -19 3 -20 -32 -13 -41 7 -77 32 -68 46 3
5 -1 6 -9 4 -9 -4 -14 3 -14 22 -2 43 -18 89 -27 75z"/>
<path d="M2625 1680 c3 -5 8 -10 11 -10 2 0 4 5 4 10 0 6 -5 10 -11 10 -5 0
-7 -4 -4 -10z"/>
<path d="M1037 1570 c3 -11 9 -20 15 -20 5 0 4 9 -2 20 -6 11 -12 20 -14 20
-2 0 -2 -9 1 -20z"/>
<path d="M908 1482 c-16 -2 -28 -7 -28 -12 0 -4 9 -6 20 -3 13 3 20 0 20 -8 0
-9 3 -10 11 -2 17 17 7 28 -23 25z"/>
<path d="M1940 1470 c0 -5 5 -10 10 -10 6 0 10 5 10 10 0 6 -4 10 -10 10 -5 0
-10 -4 -10 -10z"/>
<path d="M2650 1465 c0 -8 7 -15 16 -15 14 0 14 3 4 15 -7 8 -14 15 -16 15 -2
0 -4 -7 -4 -15z"/>
<path d="M2650 1414 c0 -10 5 -26 10 -34 8 -11 9 -7 4 15 -8 37 -14 45 -14 19z"/>
<path d="M0 1310 c0 -5 5 -10 11 -10 5 0 7 5 4 10 -3 6 -8 10 -11 10 -2 0 -4
-4 -4 -10z"/>
<path d="M1963 1285 c-2 -19 2 -35 7 -35 6 0 10 9 10 19 0 11 5 21 12 23 14 5
2 28 -15 28 -7 0 -13 -16 -14 -35z"/>
<path d="M616 1301 c-3 -5 1 -14 8 -20 9 -8 16 -8 20 -2 4 6 14 8 24 5 14 -5
14 -3 -2 10 -22 18 -42 21 -50 7z"/>
<path d="M2020 1293 c0 -13 5 -23 10 -23 13 0 13 11 0 30 -8 12 -10 11 -10 -7z"/>
<path d="M1960 1210 c8 -5 20 -10 25 -10 6 0 3 5 -5 10 -8 5 -19 10 -25 10 -5
0 -3 -5 5 -10z"/>
<path d="M1980 1100 c0 -5 5 -10 11 -10 5 0 7 5 4 10 -3 6 -8 10 -11 10 -2 0
-4 -4 -4 -10z"/>
<path d="M5010 1070 c0 -5 5 -10 11 -10 5 0 7 5 4 10 -3 6 -8 10 -11 10 -2 0
-4 -4 -4 -10z"/>
<path d="M4976 1037 c3 -10 9 -15 12 -12 3 3 0 11 -7 18 -10 9 -11 8 -5 -6z"/>
<path d="M2580 1026 c0 -9 5 -16 10 -16 6 0 10 4 10 9 0 6 -4 13 -10 16 -5 3
-10 -1 -10 -9z"/>
<path d="M5010 1030 c0 -5 5 -10 10 -10 6 0 10 -5 10 -11 0 -6 -9 -8 -22 -4
-20 5 -19 3 7 -21 22 -19 25 -25 10 -20 -19 7 -19 6 2 -15 29 -30 39 -19 20
20 -9 18 -11 33 -6 37 5 3 3 12 -5 20 -17 16 -26 18 -26 4z"/>
<path d="M5060 971 c0 -5 7 -15 17 -22 15 -13 15 -12 4 9 -12 23 -21 28 -21
13z"/>
<path d="M2170 960 c0 -5 5 -10 11 -10 5 0 7 5 4 10 -3 6 -8 10 -11 10 -2 0
-4 -4 -4 -10z"/>
<path d="M5100 915 c0 -8 4 -15 10 -15 5 0 7 7 4 15 -4 8 -8 15 -10 15 -2 0
-4 -7 -4 -15z"/>
<path d="M5108 870 c5 -13 14 -26 20 -28 19 -6 14 13 -8 33 -20 18 -21 18 -12
-5z"/>
<path d="M5086 781 c-4 -7 -5 -15 -2 -18 9 -9 19 4 14 18 -4 11 -6 11 -12 0z"/>
<path d="M2450 730 c0 -5 5 -10 10 -10 6 0 10 5 10 10 0 6 -4 10 -10 10 -5 0
-10 -4 -10 -10z"/>
<path d="M0 550 c0 -27 5 -52 10 -55 6 -3 10 -2 10 3 0 5 18 9 40 9 22 0 40
-3 40 -7 0 -4 18 -6 40 -5 28 2 40 -2 40 -11 0 -8 4 -14 9 -14 18 0 22 20 10
58 -10 33 -15 39 -43 40 -49 2 -94 9 -105 17 -6 3 -20 8 -31 10 -18 3 -20 -2
-20 -45z"/>
<path d="M230 581 c-15 -4 -20 -10 -13 -14 6 -4 23 -3 37 3 22 8 26 7 26 -10
0 -25 16 -34 37 -21 16 9 15 10 -6 11 -19 0 -21 3 -12 14 19 23 -17 32 -69 17z"/>
<path d="M232 508 c5 -15 28 -23 28 -10 0 5 -7 13 -16 16 -10 4 -14 1 -12 -6z"/>
<path d="M310 500 c0 -5 5 -10 11 -10 5 0 7 5 4 10 -3 6 -8 10 -11 10 -2 0 -4
-4 -4 -10z"/>
<path d="M2901 314 c0 -11 3 -14 6 -6 3 7 2 16 -1 19 -3 4 -6 -2 -5 -13z"/>
<path d="M2830 296 c0 -9 7 -16 16 -16 9 0 14 5 12 12 -6 18 -28 21 -28 4z"/>
<path d="M3155 300 c3 -5 8 -10 11 -10 2 0 4 5 4 10 0 6 -5 10 -11 10 -5 0 -7
-4 -4 -10z"/>
<path d="M2880 174 c0 -8 5 -12 10 -9 6 3 10 10 10 16 0 5 -4 9 -10 9 -5 0
-10 -7 -10 -16z"/>
<path d="M3630 112 c1 -21 30 -44 47 -37 10 5 21 7 26 7 4 -1 7 6 7 16 0 14
-9 18 -40 19 -22 1 -40 -1 -40 -5z"/>
<path d="M4027 73 c-4 -3 -7 -11 -7 -17 0 -6 5 -5 12 2 6 6 9 14 7 17 -3 3 -9
2 -12 -2z"/>
<path d="M3090 55 c0 -8 4 -15 10 -15 5 0 7 7 4 15 -4 8 -8 15 -10 15 -2 0 -4
-7 -4 -15z"/>
<path d="M3690 60 c0 -13 18 -22 24 -11 3 5 -1 11 -9 15 -8 3 -15 1 -15 -4z"/>
<path d="M3340 20 c0 -14 6 -20 23 -19 12 0 16 3 10 6 -7 2 -13 11 -13 19 0 8
-4 14 -10 14 -5 0 -10 -9 -10 -20z"/>
<path d="M4306 15 c-4 -11 1 -15 19 -15 18 0 23 4 19 15 -8 19 -30 19 -38 0z"/>
</g>
</svg>
